<svg xmlns="http://www.w3.org/2000/svg" width="90.413" height="45.107" viewBox="0 0 90.413 45.107"><path fill="#A7A9AB" d="M88.418 24.812c-1.197-2.479-2.783-4.791-4.704-6.93.598-.986.898-2.142.898-3.467 0-1.754-.728-3.169-2.227-4.278-1.499-1.156-3.079-1.885-4.835-2.224-.768 0-.984.297-.601.813.729.125 1.497.381 2.313.684.771.342 1.497.768 2.138 1.24a7.733 7.733 0 0 1 1.587 1.753c.428.689.641 1.414.641 2.185 0 1.026-.213 1.838-.687 2.524-1.196-1.158-2.479-2.184-3.852-3.168-1.367-.939-2.781-1.838-4.32-2.609-.127-1.197-.642-2.227-1.54-3.124-.343-.297-.728-.644-1.157-.901-.641-.471-1.411-.854-2.224-1.15-1.368-.56-2.908-.944-4.578-1.202-.938-.173-1.926-.257-2.824-.344-.386 0-.771-.038-1.113-.038-.384-.049-.726-.049-1.111-.049h-.984a15.929 15.929 0 0 0-2.054-1.152 27.625 27.625 0 0 0-2.313-.985 18.29 18.29 0 0 0-1.625-.472c-.128-.042-.258-.083-.384-.126-1.583-.384-3.21-.685-4.836-.813a26.242 26.242 0 0 0-2.61-.129c-.897 0-1.756.042-2.609.129-1.625.127-3.254.428-4.879.813-.126.043-.258.084-.384.126-.556.13-1.071.301-1.584.472a23.95 23.95 0 0 0-2.353.985c-.727.34-1.414.728-2.055 1.152h-.983c-.385 0-.727 0-1.111.049-.342 0-.727 0-1.07.038-.988.086-1.97.17-2.909.343-1.674.258-3.171.642-4.541 1.202-.812.296-1.583.679-2.226 1.15-.429.257-.811.604-1.156.901-.897.896-1.412 1.927-1.541 3.124a40.258 40.258 0 0 0-4.319 2.609c-1.369.984-2.655 2.01-3.852 3.168-.429-.686-.686-1.498-.686-2.524 0-.771.215-1.496.6-2.185.383-.641.938-1.24 1.583-1.753.684-.472 1.41-.898 2.181-1.24.814-.302 1.584-.559 2.311-.684.385-.515.212-.813-.598-.813-1.709.339-3.335 1.069-4.833 2.225-1.5 1.109-2.228 2.523-2.228 4.278 0 1.325.302 2.481.899 3.467-1.924 2.139-3.508 4.45-4.704 6.93C1.167 27.294.613 29.949.613 32.816c0 1.283.169 2.566.554 3.893a14.127 14.127 0 0 0 1.797 3.679 10.823 10.823 0 0 0 2.952 2.782c1.156.726 2.528 1.113 4.154 1.113 1.838 0 3.25-.515 4.189-1.456.984-.938 1.458-2.182 1.458-3.636 0-.942-.256-1.883-.771-2.827-.556-.981-1.498-1.454-2.823-1.454-1.114 0-2.013.347-2.654 1.026-.685.731-1.025 1.584-1.025 2.654 0 .728.212 1.369.597 1.884.428.554.985.854 1.711 1.025.257.13.473.043.641-.213.171-.259.13-.516-.042-.686-.983-.298-1.498-.981-1.498-2.096 0-.598.217-1.112.602-1.499.382-.385.939-.595 1.668-.595 1.495 0 2.223.812 2.223 2.479 0 2.652-1.456 3.982-4.406 3.982-1.072 0-2.055-.302-3.04-.899a10.63 10.63 0 0 1-2.523-2.268 11.16 11.16 0 0 1-1.752-3.255c-.429-1.243-.641-2.438-.641-3.635 0-2.525.554-4.92 1.626-7.233 1.109-2.266 2.563-4.363 4.361-6.29 1.113 1.199 2.653 2.053 4.579 2.612 1.841.554 3.896.855 6.162.855h.299a15.9 15.9 0 0 0 5.523-.985c1.281-.472 2.568-1.07 3.851-1.715.343-.167.728-.384 1.07-.554a1.93 1.93 0 0 1 .429-.214c.253.214.554.383.897.557a7.956 7.956 0 0 0 2.823 1.026c.47.042.944.087 1.453.087.303 0 .602 0 .9-.045a10.712 10.712 0 0 0 1.584-.256c.258-.041.554-.127.856-.258a13.277 13.277 0 0 0 3.037-1.409c.13-.342 0-.514-.426-.514-.728.256-1.67.514-2.781.812-.216.043-.474.085-.686.127-.556.129-1.071.172-1.584.216-.341.04-.642.04-.9.04-.509 0-1.024-.04-1.453-.084-1.026-.172-1.838-.513-2.523-1.024.814-.472 1.67-.986 2.523-1.543.727-.512 1.5-.983 2.226-1.538.041 0 .085-.044.127-.044.514-.387 1.028-.771 1.584-1.112a104.243 104.243 0 0 1 3.295-2.139c.681.385 1.369.769 1.968 1.197a14.42 14.42 0 0 1 1.797 1.412c-.944 1.24-1.412 2.566-1.412 3.977 0 .942.212 1.713.599 2.354.426.599.94.942 1.625.942.642 0 1.198-.344 1.582-.942.388-.641.599-1.412.599-2.354 0-1.411-.468-2.737-1.413-3.977a12.924 12.924 0 0 1 1.842-1.499c.601-.384 1.242-.774 1.968-1.11 1.112.726 2.182 1.41 3.252 2.139.556.34 1.07.725 1.625 1.112 0 0 .046.044.087.044.728.555 1.5 1.026 2.226 1.538a40.22 40.22 0 0 0 2.568 1.543c-.686.511-1.54.852-2.568 1.024-.43.044-.899.084-1.413.084-.298 0-.598 0-.899-.04-.51-.044-1.069-.087-1.625-.216a25.259 25.259 0 0 0-.682-.127c-1.115-.297-2.059-.556-2.785-.812-.471 0-.598.172-.385.514.899.597 1.929 1.065 3.04 1.409.256.131.554.217.812.258.556.13 1.07.214 1.625.256.302.045.602.045.899.045.468 0 .943-.045 1.413-.087a9.197 9.197 0 0 0 2.866-.983c.299-.13.602-.301.899-.515.129.087.255.128.384.214.342.215.728.385 1.113.556 1.283.684 2.565 1.198 3.853 1.67a16.23 16.23 0 0 0 5.477.942h.297c2.268 0 4.323-.301 6.163-.855 1.925-.559 3.465-1.414 4.62-2.612 1.757 1.927 3.209 4.024 4.324 6.29 1.066 2.313 1.627 4.708 1.627 7.233 0 1.197-.217 2.392-.647 3.635a11.157 11.157 0 0 1-1.751 3.255 10.65 10.65 0 0 1-2.523 2.268c-.984.598-1.97.899-3.038.899-2.912 0-4.366-1.33-4.366-3.982 0-1.667.728-2.479 2.185-2.479.727 0 1.282.21 1.667.595.428.387.601.901.601 1.499 0 1.114-.471 1.798-1.5 2.096-.17.17-.213.427-.041.686.173.256.384.343.642.213.727-.171 1.328-.472 1.712-1.025.383-.515.6-1.156.6-1.884 0-1.07-.343-1.923-.983-2.654-.687-.68-1.586-1.026-2.696-1.026-1.328 0-2.27.473-2.784 1.454-.556.944-.813 1.885-.813 2.827 0 1.454.475 2.697 1.458 3.636.938.941 2.352 1.456 4.234 1.456 1.585 0 2.954-.388 4.11-1.113a10.788 10.788 0 0 0 2.95-2.782 14.051 14.051 0 0 0 1.798-3.679c.385-1.326.597-2.609.597-3.893-.001-2.867-.598-5.522-1.798-8.003zM63.817 10.949c-.047-.428-.173-.86-.3-1.327 1.54.128 3.12.428 4.791.899 1.282.339 2.523.812 3.764 1.327.385.126.728.297 1.112.47-.168.599-.554 1.07-1.112 1.453a4.466 4.466 0 0 1-.897.472c-1.069.427-2.313.641-3.766.641-1.155 0-2.312-.256-3.592-.771.084-.342.084-.939.084-1.795 0-.469 0-.941-.084-1.369zm-2.484-5.394c.342 0 .728.043 1.113.043.685.043 1.41.127 2.142.259 1.324.169 2.609.465 3.807.899 1.196.381 2.225.896 3.037 1.539.258.171.471.34.641.554.471.517.814 1.115.985 1.754a22.316 22.316 0 0 0-.985-.383 25.284 25.284 0 0 0-4.192-1.283 26.223 26.223 0 0 0-5.049-.728 7.89 7.89 0 0 1-.385-.598 6.234 6.234 0 0 0-.684-.816 4.326 4.326 0 0 0-.43-.512 5.064 5.064 0 0 0-.898-.728h.898zm1.285 6.935c0 .213 0 .384-.044.514-.042.126-.042.298-.042.512-.043-.041-.086-.041-.086-.084-.386-.174-.771-.39-1.113-.598-.429-.257-.854-.558-1.283-.858h-.086c-.812-.598-1.67-1.197-2.524-1.838.728-.131 1.5-.257 2.268-.386h.343c.429-.084.854-.084 1.283-.128h.599c.214.467.346.942.515 1.414.126.42.17.937.17 1.452zm-4.066-6.935a9.996 9.996 0 0 1 1.498 1.156c.514.474.94.983 1.283 1.499-.429.042-.854.042-1.283.086-.983.083-1.927.171-2.866.296-.43.092-.899.133-1.327.219-.345-.257-.684-.471-.985-.73a6.738 6.738 0 0 1-.555-.386c-.344-.254-.687-.472-1.07-.724a9.709 9.709 0 0 1-.6-.347c.216-.043.429-.126.6-.169a24.49 24.49 0 0 1 1.625-.427 21.83 21.83 0 0 1 2.313-.385c.467-.044.897-.088 1.367-.088zM35.959 3.674c.514-.169 1.028-.343 1.584-.472a10.989 10.989 0 0 1 1.797-.387c1.155-.209 2.311-.384 3.467-.468.853-.042 1.752-.087 2.609-.087.855 0 1.753.044 2.61.087 1.155.084 2.313.259 3.468.468.596.086 1.196.214 1.752.387a18.29 18.29 0 0 1 1.625.472c.772.298 1.5.599 2.185.982-.771.086-1.497.17-2.185.258-.343.043-.681.089-1.025.127-.17.044-.383.044-.6.087-.768.126-1.584.343-2.352.598-.9-.471-1.844-.856-2.868-1.07-.813-.214-1.711-.301-2.61-.301-.897 0-1.795.087-2.609.258-1.029.256-1.968.602-2.867 1.113-.813-.254-1.626-.471-2.396-.598-.212-.043-.43-.043-.601-.087a33.38 33.38 0 0 1-.984-.127c-.727-.087-1.454-.171-2.224-.258.727-.383 1.455-.684 2.224-.982zm12.709 2.781a3.632 3.632 0 0 0-.642.213 7.127 7.127 0 0 1-.982.345c-.558.209-1.113.467-1.628.724a25.808 25.808 0 0 0-1.668-.724c-.3-.088-.642-.218-.941-.302-.215-.087-.473-.173-.686-.256.212-.131.47-.258.686-.342a7.443 7.443 0 0 1 2.609-.47c.94 0 1.797.171 2.61.47.213.128.428.21.642.342zm-17.885.256a7.816 7.816 0 0 1 1.456-1.156c.469 0 .899.043 1.368.087.772.084 1.541.216 2.353.385.514.131 1.028.256 1.584.427.172.043.384.126.6.169a9.931 9.931 0 0 1-.6.347c-.385.251-.727.47-1.071.724-.17.129-.343.256-.514.386-.341.259-.683.473-1.025.73-.429-.085-.899-.127-1.328-.219a63.983 63.983 0 0 0-2.823-.296c-.427-.044-.897-.044-1.326-.086.384-.515.811-1.024 1.326-1.498zm2.566 3.426c-.854.642-1.71 1.24-2.525 1.838h-.042c-.427.301-.856.602-1.326.858-.342.208-.727.424-1.07.598-.042.043-.086.043-.133.084 0-.214 0-.385-.039-.512-.045-.13-.045-.301-.045-.514 0-.515.084-1.031.217-1.454.125-.472.299-.947.469-1.414h.601c.429.044.854.044 1.326.128h.341c.773.131 1.5.256 2.226.388zM18.713 8.85c.212-.213.432-.383.643-.554.856-.643 1.84-1.157 3.038-1.539a17.658 17.658 0 0 1 3.851-.899 16.695 16.695 0 0 1 2.142-.259c.343 0 .728-.043 1.07-.043h.899c-.303.213-.601.472-.899.728-.13.171-.302.341-.429.512-.212.256-.427.514-.641.816-.133.212-.298.427-.428.598-1.626.086-3.341.301-5.048.728a26.618 26.618 0 0 0-4.197 1.283c-.342.125-.641.258-.983.383.172-.64.514-1.238.982-1.754zm0 2.999c1.241-.515 2.525-.988 3.766-1.327 1.672-.471 3.25-.771 4.791-.899-.125.467-.21.899-.296 1.327-.041.428-.088.899-.088 1.37 0 .856.047 1.453.088 1.795-1.245.515-2.438.771-3.597.771-1.454 0-2.696-.214-3.765-.641a4.515 4.515 0 0 1-.899-.472 2.836 2.836 0 0 1-1.11-1.453c.384-.174.727-.345 1.11-.471zm9.674 6.159a24.657 24.657 0 0 1-4.751 2.395c-1.583.643-3.211.942-4.922.986h-.084c-4.407 0-7.658-.986-9.758-2.909 2.055-2.185 4.493-4.023 7.36-5.477.344.939 1.157 1.71 2.443 2.308h.04c1.284.599 2.908.899 4.882.899.682 0 1.28-.087 1.884-.214a13.767 13.767 0 0 0 1.791-.511c.304.81.646 1.538 1.117 2.138.04.084.125.17.171.258-.048.04-.134.085-.173.127zm9.156-6.073c-.556.341-1.071.642-1.584.982-.683.427-1.368.899-2.011 1.326-.129.087-.212.171-.342.252-.983.689-1.925 1.331-2.823 1.972a9.977 9.977 0 0 0-1.114.728c-.085-.085-.126-.172-.212-.256-.302-.472-.601-1.113-.899-1.929.298-.169.597-.297.899-.467.429-.214.854-.472 1.326-.772a20.61 20.61 0 0 0 1.153-.811c.559-.384 1.114-.815 1.67-1.242.556-.431 1.156-.858 1.756-1.286.173.045.385.088.597.131.558.128 1.07.258 1.584.385.384.125.727.258 1.068.384-.341.169-.726.387-1.068.603zm2.57-1.502c-.858-.428-1.713-.767-2.569-.985-.212-.04-.43-.082-.601-.124.171-.134.388-.256.601-.387.342-.213.686-.471 1.025-.728a11.75 11.75 0 0 1 1.668-.988c.602.258 1.156.472 1.67.646.3.082.597.212.899.383.256.088.469.215.682.385-.213.089-.426.174-.682.302-.898.388-1.796.899-2.693 1.496zm6.289 8.345c0 1.198-.345 1.796-.986 1.796-.686 0-1.029-.598-1.029-1.796 0-1.07.343-2.009 1.029-2.867.642.858.986 1.797.986 2.867zm1.624-7.101c-.388.298-.771.554-1.111.813-.559.428-1.069.854-1.499 1.327-.47-.472-.983-.899-1.497-1.327a24.405 24.405 0 0 0-1.112-.771 6.864 6.864 0 0 0-.6-.385c.212-.126.384-.26.6-.384.339-.171.682-.385.983-.516.557-.296 1.071-.597 1.625-.899.515.303 1.026.603 1.582.899.343.171.686.345 1.028.554.213.086.385.22.556.346-.17.086-.383.214-.555.343zm1.07-2.186a8.281 8.281 0 0 0-1.069-.553c-.212-.127-.43-.213-.641-.302.211-.125.429-.258.641-.385.343-.171.642-.301.939-.428.561-.212 1.072-.383 1.629-.602a14.38 14.38 0 0 1 1.628.988c.342.257.68.515 1.023.728.217.13.43.252.6.387-.17.042-.383.084-.6.124-.858.218-1.711.557-2.564.985a15.749 15.749 0 0 0-1.586-.942zm12.026 7.705a16.377 16.377 0 0 0-1.072-.728 247.417 247.417 0 0 1-2.866-1.972c-.085-.081-.213-.165-.344-.252-.641-.427-1.281-.899-1.969-1.326-.51-.341-1.069-.642-1.625-.982a12.158 12.158 0 0 0-1.07-.602 5.485 5.485 0 0 1 1.07-.384c.515-.171 1.07-.3 1.625-.428.172-.043.385-.088.602-.088.554.427 1.154.855 1.711 1.286.556.427 1.11.858 1.671 1.242.383.296.768.555 1.195.811a9.92 9.92 0 0 0 1.283.772c.303.169.599.298.896.467-.298.815-.594 1.457-.896 1.929-.085.083-.129.17-.211.255zm16.771 3.425c-1.67.511-3.593.769-5.693.769h-.127c-1.67-.044-3.335-.343-4.92-.986a25.688 25.688 0 0 1-4.706-2.395 1.303 1.303 0 0 1-.217-.126c.048-.087.132-.174.217-.258.426-.6.769-1.328 1.071-2.138a13.5 13.5 0 0 0 1.797.511 9.197 9.197 0 0 0 1.883.214c1.967 0 3.593-.301 4.875-.899h.044c1.325-.598 2.139-1.369 2.44-2.308a27.178 27.178 0 0 1 7.401 5.477c-1.025.937-2.354 1.624-4.065 2.139z"/></svg>