<svg xmlns="http://www.w3.org/2000/svg" width="99.212" height="141.73" viewBox="0 0 99.212 141.73"><path fill="#A7A9AB" d="M24.103 136.368c4.358-.059 8.734-.788 13.089-2.11 1.013 1.517 2.473 2.719 4.374 3.604 2.516 1.174 5.033 1.078 7.625-.332 2.661-1.376 4.765-3.154 6.426-5.446.514-1.102.232-1.611-.765-1.408-.668.962-1.548 1.893-2.528 2.86a18.025 18.025 0 0 1-3.209 2.238c-1.167.579-2.37.915-3.576 1.104-1.275.155-2.458-.024-3.564-.54-1.473-.687-2.494-1.534-3.162-2.675 2.461-.94 4.791-2.096 7.122-3.407 2.261-1.332 4.497-2.76 6.633-4.451 1.802.617 3.625.567 5.513-.12.655-.294 1.41-.612 2.064-1.058 1.106-.604 2.171-1.451 3.14-2.422 1.717-1.587 3.301-3.541 4.787-5.764.875-1.229 1.656-2.591 2.383-3.822.258-.552.568-1.077.797-1.567.328-.52.557-1.01.814-1.562l.658-1.413a24.934 24.934 0 0 0 3.028-2.177 43.36 43.36 0 0 0 2.959-2.659 28.095 28.095 0 0 0 1.765-2.015c.146-.155.292-.314.438-.468 1.609-2.013 3.128-4.146 4.399-6.394a41.487 41.487 0 0 0 3.492-7.487c.906-2.415 1.564-4.954 2.1-7.542.021-.209.051-.427.075-.636.187-.885.285-1.738.382-2.589.143-1.425.169-2.76.162-4.033a25.265 25.265 0 0 0-.279-3.719l.659-1.412c.257-.551.485-1.042.672-1.626.229-.491.486-1.044.661-1.56.538-1.475 1.075-2.94 1.455-4.403.749-2.574 1.199-4.978 1.313-7.318.119-1.363.085-2.726-.161-3.964-.081-.786-.323-1.566-.518-2.26-.688-1.887-1.821-3.316-3.451-4.301-.105-2.666-.422-5.351-.854-7.942-.495-2.621-1.106-5.152-1.968-7.644 1.271-.156 2.608.018 4.08.704 1.105.516 2.003 1.31 2.732 2.322.665.979 1.152 2.175 1.457 3.444.22 1.298.345 2.624.319 3.959-.111 1.37-.259 2.646-.565 3.772.482.897 1.025.849 1.567-.313.657-2.679.697-5.5.04-8.422-.586-2.893-2.129-4.884-4.646-6.057-1.901-.887-3.763-1.228-5.574-1.03-1.784-4.191-4.039-8.01-6.797-11.384-2.755-3.385-6.194-5.956-10.307-7.874a21.873 21.873 0 0 0-5.955-1.81c-2.19-.272-4.37-.24-6.481.115-2.141.428-4.15 1.206-5.966 2.375-1.815 1.172-3.288 2.882-4.375 5.215-1.23 2.637-1.436 5.006-.714 6.983.688 2.04 2.155 3.551 4.241 4.524 1.353.631 2.873.893 4.572.785 1.779-.141 3.088-1.176 3.974-3.077.746-1.599.85-3.12.304-4.494-.591-1.472-1.587-2.531-3.121-3.246-1.046-.488-2.105-.612-3.104-.404-1.081.244-1.884.841-2.613 1.769-.359.281-.379.65-.124 1.063.257.418.652.53 1.011.398 1.087-1.21 2.411-1.493 4.011-.747.857.4 1.45 1.055 1.748 1.867.297.806.225 1.745-.263 2.791-1 2.145-2.653 2.646-5.044 1.53-3.805-1.774-4.739-4.752-2.765-8.985.717-1.537 1.807-2.745 3.324-3.76a16.828 16.828 0 0 1 4.942-2.102 17.691 17.691 0 0 1 5.841-.336c2.07.217 3.927.712 5.644 1.512 3.622 1.689 6.687 4.086 9.289 7.172 2.508 3.107 4.545 6.596 6.106 10.465-2.465.794-4.72 2.432-6.811 4.82-2.026 2.271-3.832 5.018-5.349 8.268l-.2.43a25.175 25.175 0 0 0-2.283 8.582c-.179 2.153-.182 4.4-.115 6.672.011.604.065 1.301.081 1.906.037.239.045.543.02.758-.476.22-.921.539-1.4.914-1.313.884-2.429 2.007-3.359 3.363-.375.647-.757 1.296-1.097 2.027-.203.435-.403.864-.537 1.32a16.78 16.78 0 0 0-.693 2.445 5.671 5.671 0 0 0-.202 1.4 21.016 21.016 0 0 0-.01 5.298c.402.417.736.344 1.021-.268.12-1.215.38-2.738.695-4.531.084-.339.196-.738.276-1.069.188-.884.471-1.651.751-2.418.17-.515.371-.947.544-1.317a22.96 22.96 0 0 1 1.094-2.029c.932-1.355 1.964-2.293 3.155-2.933.134 1.483.298 3.056.526 4.65.249 1.387.406 2.811.717 4.223-.028.059.006.152-.021.211.21.998.419 1.991.536 3.018.331 2.019.595 4.016.863 6.157-1.008.721-2.018 1.45-3.032 2.025a23.22 23.22 0 0 1-3.229 1.632c-1.148-2.184-2.737-3.743-4.762-4.687-1.35-.63-2.599-.844-3.777-.717-1.145.21-1.98.719-2.438 1.701-.43.921-.309 1.949.292 2.902.661.983 1.628 1.802 2.978 2.431 2.024.944 4.239 1.162 6.651.637.424 1.176.701 2.346.918 3.644.148 1.12.279 2.3.274 3.566-1.784 1.109-3.481 2.187-5.243 3.235-.858.568-1.757 1.047-2.684 1.588 0 0-.093.034-.12.092-1.283.675-2.474 1.467-3.695 2.166a64.494 64.494 0 0 0-3.932 2.652c-.274-1.328-.192-2.78.25-4.369.223-.646.479-1.345.824-2.085.198-.426.399-.856.658-1.261.405-.702.841-1.475 1.397-2.188.203-.276.408-.559.638-.892 1.172-1.402 2.175-2.582 3.027-3.453.314-.675.154-.973-.479-.896-1.458.89-2.819 2.054-4.055 3.417-.36.279-.683.65-.914.993a16.434 16.434 0 0 0-1.454 2.16c-.268.404-.467.832-.666 1.258-.313.673-.566 1.385-.821 2.087a14.558 14.558 0 0 0-.508 4.768 7.745 7.745 0 0 0 .14 1.635c-.212.13-.355.281-.565.409-.538.346-1.042.787-1.544 1.225-1.839 1.383-3.433 2.878-4.974 4.411a25.668 25.668 0 0 0-5.013 7.227l-.198.426c-1.518 3.254-2.461 6.402-2.897 9.412-.486 3.137-.289 5.917.656 8.377-3.938 1.229-7.92 1.911-11.917 1.995-4.031-.018-7.842-.814-11.466-2.504-1.716-.801-3.286-1.911-4.779-3.362a17.66 17.66 0 0 1-3.499-4.688 16.904 16.904 0 0 1-1.567-5.138c-.199-1.813.029-3.426.744-4.959 1.948-4.178 4.831-5.375 8.633-3.603 2.392 1.115 3.069 2.705 2.095 4.795-.486 1.043-1.158 1.698-1.969 1.995-.842.355-1.694.257-2.552-.144-1.597-.745-2.263-1.877-2.003-3.554-.132-.357-.471-.591-.957-.517-.484.078-.749.323-.735.779-.24 1.157-.212 2.22.323 3.143.484.894 1.258 1.634 2.303 2.121 1.535.715 2.99.794 4.465.362 1.436-.527 2.534-1.588 3.276-3.18.888-1.905.84-3.572-.224-4.966-.983-1.43-2.159-2.429-3.512-3.06-2.086-.973-4.188-1.12-6.19-.34-1.979.716-3.663 2.4-4.922 5.101-1.06 2.273-1.419 4.497-1.153 6.642.274 2.143.968 4.183 2.017 6.091 1.081 1.852 2.461 3.537 4.076 5.042 1.646 1.439 3.342 2.603 5.185 3.462 4.115 1.921 8.323 2.842 12.685 2.778zm36.346-26.019c.646.22 1.349.33 2.104.46-1.213 2.122-2.7 4.188-4.495 6.271-1.343 1.612-2.853 3.077-4.422 4.513-.438.468-.912.846-1.417 1.279-.747-.641-1.166-1.509-1.342-2.566a7.118 7.118 0 0 1-.076-1.601c.104-1.822.629-3.75 1.6-5.831.773-1.659 1.915-3.147 3.51-4.641.434.349 1.292.749 2.519 1.321.671.313 1.35.63 2.019.795zm9.398.047c-.229.49-.548 1.012-.806 1.564a29.316 29.316 0 0 1-1.804 2.9c-1.129 1.788-2.413 3.434-3.837 4.861-1.348 1.463-2.775 2.594-4.238 3.326-.418.257-.803.449-1.225.549-1.058.331-2.143.422-3.176.241.379-.345.798-.746 1.209-1.158a39.814 39.814 0 0 0 4.646-5.154c1.758-2.169 3.182-4.418 4.422-6.757.33-.067.724-.108 1.114-.151a9.685 9.685 0 0 0 1.629-.436 6.97 6.97 0 0 0 1.021-.272 8.094 8.094 0 0 0 1.645-.803l-.6 1.29zM59.039 107.6c-.306-.142-.551-.256-.706-.407-.153-.143-.399-.258-.709-.401.09-.037.119-.1.181-.07a16.6 16.6 0 0 1 1.601-1.193c.656-.444 1.373-.854 2.089-1.268l.058-.123c1.403-.766 2.835-1.596 4.326-2.395-.299 1.135-.634 2.325-.964 3.515l-.229.49c-.167.674-.45 1.281-.675 1.928l-.4.859c-.813-.007-1.584-.134-2.373-.209-.688-.099-1.46-.382-2.199-.726zm12.669-1.195c-.865.567-1.733.991-2.66 1.377-1.024.42-2.04.689-3.009.839.228-.645.512-1.256.734-1.899a94.733 94.733 0 0 0 1.494-4.311c.154-.678.409-1.379.571-2.05.601-.324 1.134-.665 1.707-.923.328-.219.626-.381.926-.542.594-.322 1.136-.666 1.753-1.049.244-.185.564-.407.9-.629-.083.34-.106.701-.159.975-.126.91-.29 1.731-.476 2.618a34.456 34.456 0 0 1-.995 3.574c-.246.699-.471 1.345-.786 2.02zm17.814-31.153c-.102.85-.196 1.703-.383 2.589a17.31 17.31 0 0 1-.648 2.835c-.472 1.798-.994 3.572-1.647 5.287-.51 1.252-1.046 2.571-1.619 3.801-.572 1.228-1.237 2.487-1.872 3.687-.894 1.602-1.919 3.146-2.992 4.662a18.115 18.115 0 0 1-1.726 2.256 29.831 29.831 0 0 1-1.764 2.015c-.945.907-1.864 1.75-2.872 2.479.394-1.165.76-2.264 1.093-3.309.168-.521.328-1.036.504-1.556.05-.272.192-.578.276-.917.332-1.186.566-2.503.714-3.774 1.278-.977 2.462-2.073 3.455-3.4.851-1.022 1.575-2.254 2.177-3.543a20.39 20.39 0 0 0 1.376-3.914c.321-1.648.453-3.227.321-4.859.907-.996 1.764-2.017 2.462-3.036.202-.275.349-.588.525-.804.282-.462.577-.921.841-1.327a484.13 484.13 0 0 0 1.857-3.018c.063 1.296.007 2.543-.078 3.846zM77.03 91.624c.081-.334.106-.7.124-1.064.019-.514.061-1.091.16-1.637.074-.942.075-1.91.053-2.823.736-.624 1.483-1.254 2.153-1.908.329-.372.743-.775 1.064-1.146.268-.251.564-.563.825-.813.046.392.056.846.031 1.213a11.797 11.797 0 0 1-1.071 4.056 11.779 11.779 0 0 1-2.42 3.431c-.324.217-.587.473-.919.691zm11.597-25.829c.329.897.563 1.831.683 2.861-.313.673-.663 1.26-1.039 1.904a38.853 38.853 0 0 1-2.127 3.118c-.531.65-1.054 1.303-1.671 1.987-.177.218-.438.467-.645.748a16.864 16.864 0 0 1-.097-1.094c-.104-.72-.188-1.357-.322-2.021-.071-.329-.137-.663-.209-.995-.144-.662-.222-1.297-.362-1.959.409-.559.783-1.204 1.203-1.758.808-1.263 1.564-2.557 2.313-3.851.349-.584.662-1.258 1.01-1.846.482.896.927 1.849 1.263 2.906zm-6.632 1.389c-.35-1.654-.634-3.282-.947-4.852l.027-.061c-.145-.813-.29-1.631-.343-2.477a27.665 27.665 0 0 1-.143-1.934c-.033-.088-.004-.152-.031-.247.308.144.553.258.762.286.216.022.461.137.767.279a7.922 7.922 0 0 1 1.941 1.286c.593.494 1.158 1.062 1.714 1.617l-.401.862c-.351.586-.635 1.196-1.071 1.817l-.228.489a316.719 316.719 0 0 1-2.047 2.935zm11.637-20.137c.163.447.261.876.365 1.294.35 1.658.428 3.413.176 5.388-.183 2.015-.614 4.048-1.288 6.125a26.359 26.359 0 0 1-1.061 3.246c-.229.492-.426 1.072-.655 1.563l-.601 1.29c-.104-.576-.274-1.177-.442-1.776-.158-.3-.287-.662-.447-.958a21.11 21.11 0 0 0-.743-1.465c-.214-.333-.412-.712-.57-1.014.964-2.39 1.804-4.994 2.332-7.729.515-2.233.816-4.48.967-6.879.049-.574.059-1.092.107-1.666.806.675 1.433 1.565 1.86 2.581zm-4.302-2.006c-.091 2.125-.271 4.284-.616 6.291-.441 2.714-1.066 5.179-1.914 7.474-.586-.491-1.15-.903-1.706-1.312-.586-.345-1.231-.729-1.906-1.043-1.228-.572-2.116-.904-2.634-1.074.095-2.13.525-4.013 1.301-5.676.973-2.086 2.11-3.725 3.438-4.973.414-.404.86-.717 1.278-.974.92-.54 1.826-.716 2.827-.62-.008.667.007 1.274-.068 1.907zM74.023 54.8a39.037 39.037 0 0 1-.258-8.418c.137-2.7.796-5.237 1.877-7.721l.057-.121c2.947-6.322 6.538-10.326 10.701-12.053 1.762 4.411 2.767 9.138 2.935 14.223-1.578-.134-3.228.517-4.945 1.96l-.027.058c-1.718 1.441-3.233 3.571-4.555 6.403-.456.978-.731 1.894-.954 2.846a21.778 21.778 0 0 0-.465 2.91c-1.365-.104-2.639-.101-3.814.173-.146.001-.327.066-.483.073-.028-.095-.035-.249-.069-.333zm2.587 17.198c-.116-1.026-.204-1.966-.349-2.93-.154-1.266-.375-2.564-.557-3.772-.038-.243-.104-.418-.133-.659-.332-1.872-.622-3.652-.94-5.368-.049-.7-.162-1.422-.3-2.085.179-.066.331-.067.509-.134.88-.118 2-.117 3.37.001.042.54.026 1.054.068 1.602.02.759.104 1.541.219 2.419.111.722.227 1.446.394 2.197.177 1.059.424 2.142.665 3.226.245 1.086.456 2.233.669 3.379-.181.218-.384.494-.587.769-.557.715-1.086 1.363-1.612 2.016-.436.467-.855.871-1.265 1.274a18.97 18.97 0 0 0-.151-1.935zm.434 4.691c1.189-.945 2.248-1.944 3.133-3.027.199-.276.405-.562.58-.779.078.336.108.729.153 1.122.076.633.217 1.3.358 1.957.181 1.059.3 2.088.301 3.053a37.005 37.005 0 0 0-2.043 1.965 6.231 6.231 0 0 1-1.151 1.035 3.512 3.512 0 0 1-1.008.721c.014-.365.034-.728.022-1.181.045-1.549-.087-3.179-.345-4.866zM60.867 80.13c-1.72-.802-2.346-1.698-1.917-2.618.458-.982 1.546-1.076 3.266-.274 1.535.716 2.651 1.838 3.425 3.395-1.662.347-3.239.213-4.774-.503zm9.101 7.079c-.17-.755-.28-1.476-.426-2.136-.236-1.091-.506-2.106-.898-3.041.991-.358 1.947-.806 2.903-1.259a37.69 37.69 0 0 0 1.852-1.079c.298-.157.633-.382.954-.603.038.389.116.723.148 1.116.019.603.097 1.236.083 1.756.051.997.141 1.937.203 2.933a64.688 64.688 0 0 0-2.35 1.669c-.474.376-.953.754-1.482 1.104-.265.248-.571.403-.867.566a6.153 6.153 0 0 0-.12-1.026zm2.42 2.997a13.04 13.04 0 0 0 1.508-1.163c.324-.221.593-.474.862-.715.038.385.084.784.124 1.175.015.607.002 1.123-.016 1.634-.07.945-.168 1.795-.227 2.739-.712.563-1.576 1.128-2.505 1.674-.597.318-1.193.63-1.729.981-.332.224-.649.447-.957.601.054-.271.136-.605.223-.942.263-1.376.347-2.828.303-4.339a24.286 24.286 0 0 0 2.414-1.645zm-19.099 12.1a26.05 26.05 0 0 0 1.763-1.051 375.229 375.229 0 0 1 4.747-2.794c.172-.066.378-.194.591-.325 1.041-.632 2.146-1.237 3.22-1.937.83-.504 1.636-1.104 2.494-1.675a19.05 19.05 0 0 0 1.581-1.132 8.62 8.62 0 0 1-.166 1.792c-.099.854-.285 1.735-.473 2.616a4.03 4.03 0 0 1-.276.923c-.983.511-1.998 1.084-2.99 1.594-.984.513-1.974 1.021-2.899 1.568a18.58 18.58 0 0 0-1.963 1.172c-.719.413-1.372.852-1.966 1.325-.444.321-.826.657-1.27.97-.969-.972-1.691-1.826-2.169-2.572-.061-.179-.157-.3-.224-.474zm-16.133 21.766c.384-2.736 1.299-5.667 2.704-8.679l.086-.186c1.18-2.366 2.724-4.553 4.707-6.399a40.605 40.605 0 0 1 6.584-5.146c.118-.097.239-.187.325-.227.094.124.163.303.226.482.575 1.013 1.391 1.993 2.351 2.966a21.527 21.527 0 0 0-1.935 2.236c-.582.775-1.136 1.633-1.567 2.558-1.317 2.825-1.972 5.356-1.973 7.595l-.03.064c-.027 2.301.534 3.984 1.68 5.044a42.986 42.986 0 0 1-12.81 6.955c-.657-2.096-.753-4.464-.348-7.263z"/></svg>