<svg version="1.1" id="layer_1" xmlns="http://www.w3.org/2000/svg" xmlns:xlink="http://www.w3.org/1999/xlink" x="0px" y="0px"
	 viewBox="0 0 400 100" style="enable-background:new 0 0 400 100; background-color:#D3221C" xml:space="preserve">
	<style type="text/css">
		.st0{fill:#fff;}
	</style>
	<defs>
		<clipPath id="S">
			<path class="st0 logo__s" d="M11.6,29.9c0.3,1.5,0.9,3.1,1.8,5c0.8,1.8,1.8,3.7,2.9,5.5c1.1,1.8,2.3,3.4,3.5,4.9c1.2,1.5,2.4,2.6,3.6,3.3
			c0.5,0,1-0.3,1.3-0.9c0.4-0.6,0.7-1.4,0.9-2.3c0.2-0.9,0.4-1.8,0.5-2.8c0.1-1,0.1-1.7,0.2-2.3c0-0.6,0.2-0.9,0.6-1.1
			c0.3-0.2,0.6-0.2,0.6-0.2l8.9-1.8c0.3,0,0.5,0.1,0.6,0.4c0.1,0.3,0.2,0.6,0.2,0.9c0,0.5-0.1,0.8-0.3,1c-2.7,3-5.3,6-7.7,9.2
			c-2.4,3.1-4.9,6.2-7.6,9.2c-0.8,0.7-1.7,1.4-2.7,2c-1,0.7-2,1-3,1c-0.4,0-0.8,0-1.1-0.1c-0.3-0.1-0.7-0.3-1-0.7
			c-1.7-1.7-3.3-3.3-4.9-5c-1.6-1.7-3-3.5-4.2-5.4c-1.2-1.9-2.3-4-3.1-6.2c-0.8-2.2-1.4-4.7-1.6-7.4c0.3-2.9,1-6.1,2.2-9.5
			c1.2-3.4,2.7-6.7,4.4-10c1.8-3.2,3.8-6.2,6-8.8c2.2-2.7,4.5-4.7,7-6c0,0,0.3,0.3,0.8,0.9c0.5,0.7,1.1,1.6,1.9,2.6
			c0.8,1.1,1.6,2.2,2.5,3.5c0.9,1.3,1.8,2.5,2.7,3.7c0.9,1.2,1.7,2.2,2.4,3.2c0.7,0.9,1.3,1.6,1.7,1.9c0.2,0.2,0.4,0.4,0.6,0.6
			c0.2,0.2,0.4,0.4,0.6,0.6c-2.4,0.6-4.7,1-7.1,1.3c-2.3,0.3-4.7,0.7-7.1,1c-0.6-1.5-1.4-2.8-2.4-3.9c-1-1.2-2-1.7-3.2-1.7
			c-0.5,0-0.9,0.2-1.2,0.7c-0.3,0.5-0.6,1.1-0.8,1.8c-0.2,0.8-0.4,1.6-0.5,2.5c-0.1,0.9-0.2,1.9-0.2,2.8c0,1.2,0.1,2.3,0.4,3.4
			C11.1,27.8,11.4,28.9,11.6,29.9z"/>
		</clipPath>
	</defs>
	<g>
		<!-- Tut bula S -->
		<g clip-path="url(#S)">
			<rect class="logo__s" x="0" y="0" width="100%" height="100%" fill="#c1c1c1"></rect>
		</g>
		
		<path class="st0 logo__y" d="M68.2,40.6c0-0.7,0-1.7,0-3c0-1.3,0-2.6,0-4.1c0-1.4,0.1-2.8,0.1-4.1c0-1.3,0.1-2.3,0.1-3
			c-0.6,0.1-1.3,0.4-2.1,0.9c-0.8,0.6-1.7,1.3-2.7,2.1c-1,0.8-2,1.7-3,2.5c-1,0.9-2,1.7-2.9,2.4c0,1.3,0.1,2.3,0.2,3.1
			c0.1,0.8,0.2,1.4,0.3,2c0.1,0.6,0.3,1.1,0.4,1.6c0.1,0.5,0.3,1.1,0.5,1.9c0.1,0.7,0.4,1.3,0.7,1.8c0.3,0.6,0.6,1.1,1,1.6
			c0.3,0.5,0.6,1.1,0.8,1.7c0.2,0.6,0.4,1.2,0.4,1.9c0,0.9-0.4,1.7-1.2,2.2c-0.8,0.6-1.8,1-2.8,1.4c-1.1,0.4-2.1,0.6-3.2,0.7
			c-1.1,0.1-1.8,0.2-2.2,0.2c-0.1,0-0.4,0-0.9-0.1c-0.5,0-0.9-0.1-1.5-0.2c-0.5,0-1.1-0.1-1.5-0.2c-0.5,0-0.9-0.1-1.1-0.1
			c-0.9,0-1.6-0.5-2-1.4c-0.4-0.9-0.7-2-0.9-3.4c-0.2-1.3-0.3-2.8-0.3-4.4c-0.1-1.6-0.2-3-0.4-4.3c0-2.6,0.1-5.2,0.2-7.8
			c0.1-1.4,0.1-2.8,0.2-4.2c0-1.4,0.1-2.8,0.1-4.2c0-1,0-1.9-0.1-2.8c-0.1-0.9-0.2-1.9-0.3-2.8c-0.1-1-0.2-2-0.3-3.1
			c-0.1-1-0.2-2.1-0.2-3.1c0-1.6,0.4-2.7,1.1-3.5c0.7-0.8,1.7-1.1,2.9-1.1c1.5,0,3,0.1,4.5,0.2c1.5,0.1,3,0.2,4.4,0.3
			c0.7,0.6,1.2,1.3,1.4,2c0.2,0.7,0.3,1.5,0.3,2.5c0,0.9,0,1.7-0.1,2.6c0,0.9-0.1,1.8-0.2,2.6c0,0.3-0.1,1-0.1,2c0,1,0,2.1-0.1,3.3
			c0,1.2,0,2.2,0,3.3c0,1,0,1.7,0,2c1.3-1.1,2.6-2.1,4-3c1.3-0.9,2.5-1.7,3.5-2.4c1-0.8,1.8-1.5,2.4-2.2c0.6-0.7,0.8-1.5,0.7-2.3
			c-0.1-1-0.2-2-0.3-3.1c-0.1-1-0.2-2.1-0.2-3.1c0-1.6,0.4-2.7,1.1-3.5S70.5,8,71.8,8c1.5,0,3,0.1,4.5,0.2c1.5,0.1,3,0.2,4.4,0.3
			c0.7,0.6,1.2,1.3,1.4,2c0.2,0.7,0.3,1.5,0.3,2.5c0,0.9,0,1.7-0.1,2.6c0,0.9-0.1,1.8-0.2,2.6c-0.1,1.7-0.2,3.4-0.2,5.1
			c0,1.1,0,2.5,0.1,4.3c0.1,1.8,0.2,3.7,0.4,5.6c0.1,1.9,0.3,3.8,0.5,5.6c0.2,1.8,0.4,3.2,0.6,4.2c0.1,0.7,0.3,1.3,0.6,1.8
			c0.3,0.6,0.6,1.1,0.9,1.6c0.3,0.5,0.6,1.1,0.8,1.7c0.2,0.6,0.4,1.2,0.4,1.9c0,0.9-0.4,1.7-1.2,2.2c-0.8,0.6-1.8,1-2.8,1.4
			c-1.1,0.4-2.1,0.6-3.2,0.7c-1.1,0.1-1.8,0.2-2.2,0.2c-0.1,0-0.4,0-0.9-0.1c-0.5,0-0.9-0.1-1.5-0.2c-0.5,0-1.1-0.1-1.5-0.2
			c-0.5,0-0.9-0.1-1.1-0.1c-0.9,0-1.6-0.5-2-1.4c-0.4-0.9-0.7-2-0.9-3.4c-0.2-1.3-0.3-2.8-0.3-4.4C68.4,43.4,68.3,41.9,68.2,40.6z"/>
		<path class="st0 logo__t" d="M101.3,45c0-2.1,0.2-4.1,0.5-6.2c0.3-2.1,0.8-4.1,1.3-6.2c0.5-2,1.1-4.1,1.7-6.1c0.6-2,1.2-4.1,1.8-6.1
			c0.2-0.6,0.4-1.3,0.5-2c0.2-0.7,0.4-1.5,0.6-2.2c0.2-0.7,0.4-1.4,0.5-2c0.1-0.6,0.2-1.1,0.2-1.4c0-0.9-0.3-1.5-0.8-1.6
			c-0.5-0.2-1.1-0.3-1.8-0.3c-1.3,0-2.4,0.5-3.5,1.5c-1,1-1.9,2.3-2.7,3.9c-0.8,1.6-1.4,3.3-1.9,5.2c-0.5,1.9-1,3.7-1.3,5.5
			c-0.3,1.8-0.6,3.4-0.7,4.9c-0.2,1.4-0.2,2.5-0.2,3.1c-1-0.8-1.7-2-2.3-3.5c-0.5-1.5-0.9-3-1.2-4.6c-0.3-1.5-0.4-3-0.5-4.2
			c0-1.3-0.1-2.1-0.1-2.5c0-2.8,0.1-5,0.2-6.8c0.1-1.7,0.5-3.1,1.2-4.1c0.7-1,1.7-1.7,3.2-2c1.4-0.4,3.5-0.6,6.1-0.6
			c4,0,7.8,0.3,11.6,0.8c3.7,0.5,7.5,1,11.5,1.6c0.8,0.1,1.8,0.2,3,0.2c1.2,0.1,2.4,0.1,3.7,0.2c1.3,0.1,2.5,0.1,3.7,0.1
			c1.2,0,2.2,0,3.1,0c-1,1.2-2,2.7-3.1,4.5c-1.1,1.8-2.1,3.7-3.1,5.6c-1,1.9-2,3.9-2.8,5.8c-0.9,1.9-1.6,3.6-2.2,5.1
			c-0.3,0.6-0.5,1.2-0.9,1.8c-0.3,0.6-0.7,1.2-1,1.7c-0.3,0.5-0.7,0.9-1,1.2c-0.3,0.3-0.6,0.5-0.9,0.5c-0.5,0-0.8-0.2-0.9-0.6
			c-0.1-0.4-0.2-0.8-0.2-1.2c0-1.5,0.1-3.1,0.4-4.6c0.3-1.6,0.5-3.1,0.9-4.7c0.3-1.5,0.6-3.1,0.9-4.6c0.3-1.5,0.4-3.1,0.4-4.6
			c0-0.6-0.1-1.1-0.4-1.5c-0.3-0.4-0.6-0.7-1-0.9c-0.4-0.2-0.8-0.4-1.3-0.5c-0.5-0.1-0.9-0.2-1.4-0.2c-0.8,0-1.6,0.2-2.3,0.7
			c-0.7,0.5-1.1,1.3-1.2,2.4c-0.1,1.4-0.2,2.7-0.2,3.9c-0.1,1.2-0.1,2.3-0.2,3.3c0,1.1-0.1,2.1-0.1,3.2c0,1.1,0,2.3,0,3.6
			c0,1.8,0,3.8,0.1,6c0.1,2.2,0.3,4.3,0.7,6.5c0.4,2.2,1,4.2,1.9,6.1c0.8,1.9,2,3.4,3.4,4.7c0,0.3-0.3,0.6-0.9,0.9
			c-0.6,0.3-1.4,0.6-2.4,0.8c-1,0.2-2,0.4-3.2,0.6c-1.2,0.2-2.3,0.3-3.4,0.5c-1.1,0.1-2.1,0.2-3.1,0.3c-0.9,0-1.6,0.1-2,0.1
			c-1.7,0-3-0.2-3.9-0.6c-0.9-0.4-1.7-1-2.1-1.9c-0.5-0.9-0.8-2-0.9-3.4C101.3,48.7,101.3,47,101.3,45z"/>
		<path class="st0 logo__a" d="M155.7,5.3c0.1,0,0.3-0.1,0.5-0.2c0.2,0,0.5-0.1,0.8-0.1c0.3,0,0.5,0,0.7-0.1c0.2,0,0.4,0,0.5,0
			c1.4,0,2.6,0.4,3.6,1.1c1,0.7,1.9,1.7,2.7,2.8c0.8,1.1,1.4,2.4,2,3.8s1.2,2.7,1.8,3.9c0.8,1.8,1.6,3.6,2.2,5.4
			c0.7,1.8,1.3,3.7,1.9,5.6c0.6,1.9,1.2,3.8,1.8,5.7c0.6,1.9,1.2,3.8,1.9,5.7c0.3,0.9,0.7,1.9,1.2,3.1c0.5,1.2,0.9,2.3,1.4,3.3
			c0.5,1,1,1.9,1.4,2.7c0.5,0.8,0.8,1.3,1.2,1.5c-0.4,1.3-1,2.2-1.8,2.9c-0.8,0.7-1.7,1.2-2.7,1.5c-1,0.3-2,0.5-3,0.6
			c-1,0.1-1.9,0.1-2.6,0.1c-1.7,0-3.1-0.3-4-0.9c-1-0.6-1.7-1.3-2.4-2.1c-0.6-0.8-1.1-1.5-1.6-2.1c-0.5-0.6-1-0.9-1.7-0.9
			c-1,0-1.8,0.2-2.6,0.5c-0.7,0.3-1.4,0.7-2.1,1.3c-0.6,0.5-1.3,1-2,1.6c-0.7,0.5-1.4,1-2.2,1.4c-0.9,0.4-1.8,0.7-2.8,0.8
			c-1,0.1-2,0.2-3,0.2c-0.8,0-1.6,0-2.4-0.2c-0.8-0.1-1.5-0.3-2.2-0.7c-0.6-0.4-1.2-0.8-1.6-1.4c-0.4-0.6-0.6-1.4-0.6-2.5
			c0-2.2,0.4-4.4,1.2-6.4c0.8-2.1,1.8-4,3-5.9c1.2-1.9,2.5-3.6,3.9-5.3c1.4-1.7,2.8-3.2,4.1-4.7c0.3-0.4,0.6-0.8,0.9-1.1
			c0.3-0.3,0.4-0.8,0.4-1.5c0-0.8-0.2-1.7-0.5-2.8c-0.3-1.1-0.7-2.1-1.1-3.1c-0.4-1-0.9-1.8-1.3-2.6c-0.5-0.7-0.8-1.2-1.1-1.3
			c-0.2-0.4-0.5-0.7-0.9-0.9c-0.4-0.3-0.8-0.5-1.2-0.8s-0.7-0.6-1-0.9c-0.3-0.3-0.5-0.7-0.5-1.3c0-0.6,0.2-1,0.5-1.3
			c0.3-0.3,0.7-0.6,1.1-0.8L155.7,5.3z M150.3,39c0,1.1,0.2,2,0.7,2.7c0.5,0.7,1.1,1.2,1.8,1.6c0.7,0.4,1.5,0.6,2.4,0.8
			c0.9,0.1,1.7,0.2,2.4,0.2c0.8,0,1.4-0.2,1.9-0.6c0.5-0.4,0.7-1,0.7-1.8c0-0.3-0.1-0.6-0.2-0.9c-0.1-0.4-0.2-0.7-0.4-1
			c-0.1-0.3-0.4-0.8-0.7-1.6c-0.3-0.7-0.6-1.5-1-2.3c-0.3-0.8-0.6-1.6-1-2.3c-0.3-0.7-0.5-1.3-0.7-1.6c-0.3-0.6-0.6-0.9-1-1.1
			c-0.4-0.2-0.8-0.3-1.1-0.3c-0.7,0-1.3,0.3-1.8,0.9c-0.5,0.6-0.9,1.4-1.2,2.3c-0.3,0.9-0.6,1.8-0.7,2.7
			C150.4,37.6,150.3,38.4,150.3,39z"/>
		<path class="st0 logo__*" d="M205.7,5.7l-6.1,9.5v0.2l9.7-1.5V19l-9.7-1.4v0.2l6.2,9.1l-4.1,2.7L197.8,19h-0.1l-4.2,10.7l-3.7-2.7l6.1-9.2
			v-0.2l-9.5,1.4v-5.2l9.5,1.4v-0.2l-6.1-9.2l3.9-2.7l4,10.5h0.1l3.9-10.6L205.7,5.7z"/>
		<path class="st0 logo__h" d="M214.7,75.7c-0.1-0.1-0.1-0.3-0.2-0.6c0-0.3,0-0.6-0.1-1c0-0.4,0-0.7,0-1c0-0.3,0-0.5,0-0.6
			c0-2,0.3-4.3,0.8-6.7c0.5-2.5,1.3-5,2.2-7.6c0.9-2.6,1.9-5.2,3.1-7.8c1.2-2.6,2.4-5.2,3.7-7.6c1.3-2.4,2.6-4.7,3.9-6.8
			c1.3-2.1,2.5-3.9,3.6-5.4c-0.5-1.6-1.3-3.5-2.4-5.6c-1.2-2.1-2.4-4.1-3.8-6s-2.7-3.5-3.9-4.9c-1.2-1.4-2.2-2.1-2.9-2.3
			c0,0-0.1-0.1-0.1-0.2c0-0.2,0-0.3,0-0.3c0-0.5,0.3-1,0.9-1.6c0.6-0.6,1.4-1.1,2.3-1.7c0.9-0.6,2-1.1,3.1-1.6
			c1.1-0.5,2.2-0.9,3.3-1.3s2-0.7,2.9-0.9c0.9-0.2,1.5-0.3,2-0.3c1.2,0,2.2,0.5,3.2,1.4c1,0.9,1.8,1.9,2.5,3.1
			c0.7,1.2,1.3,2.3,1.8,3.5c0.5,1.2,0.9,2,1.1,2.5c0.4-0.8,0.8-1.5,1.4-2.3c0.5-0.8,1.1-1.6,1.6-2.3s1.2-1.5,1.8-2.2
			c0.6-0.7,1.2-1.3,1.7-1.8c0.3-0.4,0.8-0.6,1.4-0.7c0.6-0.1,1.1-0.2,1.5-0.2c0.5,0,1,0.1,1.6,0.2c0.6,0.2,1.2,0.4,1.8,0.8
			c0.6,0.4,1.1,0.8,1.5,1.5c0.4,0.6,0.7,1.4,0.8,2.4c-0.7,0.1-1.7,0.3-2.9,0.8c-1.2,0.5-2.5,1.1-3.9,1.9c-1.4,0.8-2.7,1.6-3.9,2.5
			c-1.3,0.9-2.3,1.8-3.1,2.7c0.8,2.1,1.8,4.4,2.8,7c1.1,2.5,2.2,5,3.4,7.5s2.4,4.9,3.6,7.2c1.2,2.3,2.3,4.4,3.3,6.2
			c0,1.2-0.3,2.2-1,3.3c-0.7,1-1.5,1.9-2.5,2.7c-1,0.8-2,1.4-3.1,1.9c-1.1,0.5-2,0.7-2.8,0.7c-1,0-2-0.5-3-1.4c-1-0.9-2-2-3-3.4
			c-1-1.4-1.9-2.9-2.8-4.5c-0.9-1.6-1.7-3.2-2.4-4.7s-1.3-2.8-1.7-3.9c-0.5-1.1-0.7-1.8-0.8-2.2c-0.9,1.3-1.8,3-2.7,5.1
			c-0.9,2.1-1.8,4.3-2.7,6.8c-0.9,2.5-1.7,5.1-2.4,7.8c-0.8,2.8-1.4,5.5-2,8.1c-0.6,2.7-1,5.2-1.3,7.6c-0.3,2.4-0.5,4.5-0.5,6.3
			c0,1.6,0.1,2.9,0.4,3.9c-0.4,0-1-0.1-1.7-0.3c-0.7-0.2-1.4-0.5-2.1-0.8c-0.7-0.4-1.4-0.8-2-1.3C215.4,76.7,215,76.2,214.7,75.7z"/>
		<path class="st0 logo__2a" d="M278.9,5.3c0.1,0,0.3-0.1,0.5-0.2c0.2,0,0.5-0.1,0.8-0.1c0.3,0,0.5,0,0.7-0.1c0.2,0,0.4,0,0.5,0
			c1.4,0,2.6,0.4,3.6,1.1c1,0.7,1.9,1.7,2.7,2.8s1.4,2.4,2,3.8c0.6,1.4,1.2,2.7,1.8,3.9c0.8,1.8,1.6,3.6,2.2,5.4
			c0.7,1.8,1.3,3.7,1.9,5.6c0.6,1.9,1.2,3.8,1.8,5.7c0.6,1.9,1.2,3.8,1.9,5.7c0.3,0.9,0.7,1.9,1.2,3.1c0.5,1.2,0.9,2.3,1.4,3.3
			c0.5,1,1,1.9,1.4,2.7c0.5,0.8,0.8,1.3,1.2,1.5c-0.4,1.3-1,2.2-1.8,2.9c-0.8,0.7-1.7,1.2-2.7,1.5c-1,0.3-2,0.5-3,0.6
			c-1,0.1-1.9,0.1-2.6,0.1c-1.7,0-3.1-0.3-4-0.9c-1-0.6-1.7-1.3-2.3-2.1c-0.6-0.8-1.1-1.5-1.6-2.1c-0.5-0.6-1-0.9-1.7-0.9
			c-1,0-1.8,0.2-2.6,0.5c-0.7,0.3-1.4,0.7-2.1,1.3c-0.6,0.5-1.3,1-2,1.6c-0.7,0.5-1.4,1-2.2,1.4c-0.9,0.4-1.8,0.7-2.8,0.8
			c-1,0.1-2,0.2-3,0.2c-0.8,0-1.6,0-2.4-0.2c-0.8-0.1-1.5-0.3-2.2-0.7c-0.6-0.4-1.2-0.8-1.6-1.4c-0.4-0.6-0.6-1.4-0.6-2.5
			c0-2.2,0.4-4.4,1.2-6.4c0.8-2.1,1.8-4,3-5.9c1.2-1.9,2.5-3.6,3.9-5.3c1.4-1.7,2.8-3.2,4.1-4.7c0.3-0.4,0.6-0.8,0.9-1.1
			c0.3-0.3,0.4-0.8,0.4-1.5c0-0.8-0.2-1.7-0.5-2.8s-0.7-2.1-1.1-3.1c-0.4-1-0.9-1.8-1.3-2.6c-0.5-0.7-0.8-1.2-1.1-1.3
			c-0.2-0.4-0.5-0.7-0.9-0.9c-0.4-0.3-0.8-0.5-1.2-0.8c-0.4-0.3-0.7-0.6-1-0.9c-0.3-0.3-0.5-0.7-0.5-1.3c0-0.6,0.2-1,0.5-1.3
			c0.3-0.3,0.7-0.6,1.1-0.8L278.9,5.3z M273.6,39c0,1.1,0.2,2,0.7,2.7c0.5,0.7,1.1,1.2,1.8,1.6c0.7,0.4,1.5,0.6,2.4,0.8
			c0.9,0.1,1.7,0.2,2.4,0.2c0.8,0,1.4-0.2,1.9-0.6c0.5-0.4,0.7-1,0.7-1.8c0-0.3-0.1-0.6-0.2-0.9c-0.1-0.4-0.2-0.7-0.4-1
			c-0.1-0.3-0.4-0.8-0.7-1.6c-0.3-0.7-0.6-1.5-1-2.3c-0.3-0.8-0.6-1.6-1-2.3c-0.3-0.7-0.5-1.3-0.7-1.6c-0.3-0.6-0.6-0.9-1-1.1
			c-0.4-0.2-0.8-0.3-1.1-0.3c-0.7,0-1.3,0.3-1.8,0.9c-0.5,0.6-0.9,1.4-1.2,2.3c-0.3,0.9-0.6,1.8-0.7,2.7
			C273.6,37.6,273.6,38.4,273.6,39z"/>
		<path class="st0 logo__2t" d="M313.7,45c0-2.1,0.2-4.1,0.5-6.2c0.3-2.1,0.8-4.1,1.3-6.2c0.5-2,1.1-4.1,1.7-6.1c0.6-2,1.2-4.1,1.8-6.1
			c0.2-0.6,0.4-1.3,0.5-2c0.2-0.7,0.4-1.5,0.6-2.2c0.2-0.7,0.4-1.4,0.5-2c0.1-0.6,0.2-1.1,0.2-1.4c0-0.9-0.3-1.5-0.8-1.6
			c-0.5-0.2-1.1-0.3-1.8-0.3c-1.3,0-2.4,0.5-3.5,1.5c-1,1-1.9,2.3-2.7,3.9c-0.8,1.6-1.4,3.3-1.9,5.2c-0.5,1.9-1,3.7-1.3,5.5
			c-0.3,1.8-0.6,3.4-0.7,4.9c-0.2,1.4-0.2,2.5-0.2,3.1c-1-0.8-1.8-2-2.3-3.5c-0.5-1.5-0.9-3-1.2-4.6c-0.3-1.5-0.4-3-0.5-4.2
			c0-1.3-0.1-2.1-0.1-2.5c0-2.8,0.1-5,0.2-6.8s0.5-3.1,1.2-4.1c0.7-1,1.7-1.7,3.2-2s3.5-0.6,6.1-0.6c4,0,7.8,0.3,11.6,0.8
			c3.7,0.5,7.5,1,11.5,1.6c0.8,0.1,1.8,0.2,3,0.2c1.2,0.1,2.4,0.1,3.7,0.2c1.3,0.1,2.5,0.1,3.7,0.1c1.2,0,2.2,0,3.1,0
			c-1,1.2-2,2.7-3.1,4.5s-2.1,3.7-3.1,5.6c-1,1.9-2,3.9-2.8,5.8c-0.9,1.9-1.6,3.6-2.2,5.1c-0.3,0.6-0.5,1.2-0.9,1.8
			c-0.3,0.6-0.7,1.2-1,1.7c-0.3,0.5-0.7,0.9-1,1.2s-0.6,0.5-0.9,0.5c-0.5,0-0.8-0.2-0.9-0.6c-0.1-0.4-0.2-0.8-0.2-1.2
			c0-1.5,0.1-3.1,0.4-4.6c0.3-1.6,0.5-3.1,0.9-4.7c0.3-1.5,0.6-3.1,0.9-4.6c0.3-1.5,0.4-3.1,0.4-4.6c0-0.6-0.1-1.1-0.4-1.5
			s-0.6-0.7-1-0.9c-0.4-0.2-0.8-0.4-1.3-0.5c-0.5-0.1-0.9-0.2-1.4-0.2c-0.8,0-1.6,0.2-2.3,0.7c-0.7,0.5-1.1,1.3-1.2,2.4
			c-0.1,1.4-0.2,2.7-0.2,3.9c-0.1,1.2-0.1,2.3-0.2,3.3s-0.1,2.1-0.1,3.2c0,1.1,0,2.3,0,3.6c0,1.8,0,3.8,0.1,6
			c0.1,2.2,0.3,4.3,0.7,6.5c0.4,2.2,1,4.2,1.9,6.1c0.8,1.9,2,3.4,3.4,4.7c0,0.3-0.3,0.6-0.9,0.9c-0.6,0.3-1.4,0.6-2.4,0.8
			c-1,0.2-2,0.4-3.2,0.6c-1.2,0.2-2.3,0.3-3.4,0.5c-1.1,0.1-2.1,0.2-3.1,0.3c-0.9,0-1.6,0.1-2,0.1c-1.7,0-3-0.2-3.9-0.6
			c-0.9-0.4-1.7-1-2.1-1.9c-0.5-0.9-0.8-2-0.9-3.4C313.7,48.7,313.7,47,313.7,45z"/>
		<path class="st0 logo__3a" d="M368.1,5.3c0.1,0,0.3-0.1,0.5-0.2c0.2,0,0.5-0.1,0.8-0.1c0.3,0,0.5,0,0.7-0.1c0.2,0,0.4,0,0.5,0
			c1.4,0,2.6,0.4,3.6,1.1c1,0.7,1.9,1.7,2.7,2.8s1.4,2.4,2,3.8c0.6,1.4,1.2,2.7,1.8,3.9c0.8,1.8,1.6,3.6,2.2,5.4
			c0.7,1.8,1.3,3.7,1.9,5.6c0.6,1.9,1.2,3.8,1.8,5.7c0.6,1.9,1.2,3.8,1.9,5.7c0.3,0.9,0.7,1.9,1.2,3.1c0.5,1.2,0.9,2.3,1.4,3.3
			c0.5,1,1,1.9,1.4,2.7c0.5,0.8,0.8,1.3,1.2,1.5c-0.4,1.3-1,2.2-1.8,2.9c-0.8,0.7-1.7,1.2-2.7,1.5c-1,0.3-2,0.5-3,0.6
			c-1,0.1-1.9,0.1-2.6,0.1c-1.7,0-3.1-0.3-4-0.9c-1-0.6-1.7-1.3-2.3-2.1c-0.6-0.8-1.1-1.5-1.6-2.1c-0.5-0.6-1-0.9-1.7-0.9
			c-1,0-1.8,0.2-2.6,0.5c-0.7,0.3-1.4,0.7-2.1,1.3c-0.6,0.5-1.3,1-2,1.6c-0.7,0.5-1.4,1-2.2,1.4c-0.9,0.4-1.8,0.7-2.8,0.8
			c-1,0.1-2,0.2-3,0.2c-0.8,0-1.6,0-2.4-0.2c-0.8-0.1-1.5-0.3-2.2-0.7c-0.6-0.4-1.2-0.8-1.6-1.4c-0.4-0.6-0.6-1.4-0.6-2.5
			c0-2.2,0.4-4.4,1.2-6.4c0.8-2.1,1.8-4,3-5.9c1.2-1.9,2.5-3.6,3.9-5.3c1.4-1.7,2.8-3.2,4.1-4.7c0.3-0.4,0.6-0.8,0.9-1.1
			c0.3-0.3,0.4-0.8,0.4-1.5c0-0.8-0.2-1.7-0.5-2.8s-0.7-2.1-1.1-3.1c-0.4-1-0.9-1.8-1.3-2.6c-0.5-0.7-0.8-1.2-1.1-1.3
			c-0.2-0.4-0.5-0.7-0.9-0.9c-0.4-0.3-0.8-0.5-1.2-0.8c-0.4-0.3-0.7-0.6-1-0.9c-0.3-0.3-0.5-0.7-0.5-1.3c0-0.6,0.2-1,0.5-1.3
			c0.3-0.3,0.7-0.6,1.1-0.8L368.1,5.3z M362.7,39c0,1.1,0.2,2,0.7,2.7c0.5,0.7,1.1,1.2,1.8,1.6c0.7,0.4,1.5,0.6,2.4,0.8
			c0.9,0.1,1.7,0.2,2.4,0.2c0.8,0,1.4-0.2,1.9-0.6c0.5-0.4,0.7-1,0.7-1.8c0-0.3-0.1-0.6-0.2-0.9c-0.1-0.4-0.2-0.7-0.4-1
			c-0.1-0.3-0.4-0.8-0.7-1.6c-0.3-0.7-0.6-1.5-1-2.3c-0.3-0.8-0.6-1.6-1-2.3c-0.3-0.7-0.5-1.3-0.7-1.6c-0.3-0.6-0.6-0.9-1-1.1
			c-0.4-0.2-0.8-0.3-1.1-0.3c-0.7,0-1.3,0.3-1.8,0.9c-0.5,0.6-0.9,1.4-1.2,2.3c-0.3,0.9-0.6,1.8-0.7,2.7
			C362.8,37.6,362.7,38.4,362.7,39z"/>
	</g>
	<g>
		<path class="st0 korchma" d="M275.6,87.2c0-1,0-2.1,0.1-3.1c0-0.6,0.1-1.1,0.1-1.6c0-0.5,0-1.1,0-1.6c0-0.4,0-0.8-0.1-1.1
			c0-0.4-0.1-0.7-0.1-1.1c0-0.4-0.1-0.8-0.1-1.2s-0.1-0.8-0.1-1.2c0-0.6,0.1-1.1,0.4-1.4c0.3-0.3,0.7-0.4,1.2-0.4
			c0.6,0,1.2,0,1.8,0.1s1.2,0.1,1.7,0.1c0.3,0.2,0.5,0.5,0.5,0.8c0.1,0.3,0.1,0.6,0.1,1c0,0.3,0,0.7,0,1c0,0.3,0,0.7-0.1,1
			c-0.1,0.7-0.1,1.3-0.1,2c0,0.4,0,1,0.1,1.7c0,0.7,0.1,1.5,0.1,2.2c0.1,0.8,0.1,1.5,0.2,2.2s0.2,1.3,0.2,1.7
			c0.1,0.3,0.1,0.5,0.3,0.7c0.1,0.2,0.2,0.4,0.4,0.6s0.2,0.4,0.3,0.7c0.1,0.2,0.1,0.5,0.1,0.7c0,0.4-0.2,0.7-0.5,0.9
			c-0.3,0.2-0.7,0.4-1.1,0.6c-0.4,0.1-0.8,0.2-1.3,0.3c-0.4,0-0.7,0.1-0.9,0.1c-0.1,0-0.2,0-0.3,0c-0.2,0-0.4,0-0.6-0.1
			c-0.2,0-0.4,0-0.6-0.1c-0.2,0-0.3,0-0.4,0c-0.4,0-0.6-0.2-0.8-0.5c-0.2-0.4-0.3-0.8-0.3-1.3c-0.1-0.5-0.1-1.1-0.1-1.7
			C275.7,88.3,275.7,87.7,275.6,87.2z M289.8,98.8c0-0.9-0.2-1.8-0.4-2.7c-0.3-0.9-0.6-1.8-1.1-2.6c-0.4-0.9-0.9-1.7-1.5-2.5
			c-0.5-0.8-1.1-1.6-1.7-2.4c-0.6-0.8-1.1-1.5-1.7-2.3c-0.5-0.7-1-1.4-1.5-2.1c-0.1-0.2-0.1-0.3-0.2-0.6s0-0.5,0-0.9
			c0-0.6,0.1-1.2,0.3-1.8c0.2-0.7,0.5-1.3,0.8-2c0.3-0.7,0.7-1.3,1.2-2s0.9-1.2,1.4-1.7c0.5-0.5,1-0.9,1.5-1.2c0.5-0.3,1-0.4,1.5-0.4
			c0.4,0,0.8,0.2,1,0.7c0.2,0.5,0.4,1,0.5,1.7c0.1,0.6,0.2,1.3,0.2,1.9c0,0.6,0,1.1,0,1.5c0,0.2,0,0.4,0,0.6s0,0.4-0.1,0.6
			s-0.1,0.3-0.2,0.4c-0.1,0.1-0.2,0.2-0.4,0.2c-0.4-0.1-0.7-0.3-1-0.7c-0.2-0.4-0.5-0.8-0.7-1.3c-0.2-0.5-0.5-0.9-0.8-1.3
			c-0.3-0.4-0.7-0.6-1.2-0.6c-0.3,0-0.5,0.1-0.8,0.4s-0.4,0.6-0.5,0.9c-0.1,0.4-0.2,0.7-0.3,1.1c-0.1,0.4-0.1,0.7-0.1,1
			c0,0.2,0,0.4,0.1,0.6c0,0.2,0.1,0.3,0.3,0.4c0.2,0.1,0.4,0.2,0.5,0.4c0.2,0.1,0.3,0.2,0.5,0.3c0.6,0.3,1.2,0.6,1.7,0.9s1,0.6,1.5,1
			c0.5,0.4,0.9,0.8,1.3,1.4c0.4,0.5,0.7,1.2,1.1,1.9c0.3,0.7,0.5,1.5,0.7,2.4s0.3,1.9,0.3,3.2c0,0.2,0,0.6-0.1,1.2s-0.2,1.2-0.3,1.8
			c-0.2,0.6-0.4,1.3-0.6,1.8c-0.3,0.6-0.6,1-1,1.3L289.8,98.8z"/>
		<path class="st0 korchma" d="M302.4,71.8c1.2,1.3,2.2,2.6,3.1,3.9c0.9,1.3,1.7,2.6,2.5,3.9c0.4,0.9,0.7,1.9,1,3c0.2,1.1,0.3,2.2,0.3,3.4
			c-0.1,0.2-0.1,0.4-0.2,0.6c-0.1,0.2-0.2,0.4-0.3,0.6c-0.9,1.2-1.8,2.3-2.7,3.4s-1.9,2.2-2.8,3.3c-0.3,0.3-0.7,0.5-1.1,0.8
			c-0.4,0.3-0.8,0.4-1.2,0.4c-0.2,0-0.3,0-0.4,0c-0.1,0-0.3-0.1-0.4-0.3c-0.7-0.7-1.3-1.3-1.9-2c-0.6-0.7-1.2-1.4-1.6-2.1
			c-0.5-0.7-0.9-1.6-1.2-2.4c-0.3-0.9-0.5-1.9-0.6-2.9c0.1-1.2,0.4-2.4,0.9-3.7c0.5-1.3,1-2.7,1.7-3.9c0.7-1.3,1.5-2.4,2.4-3.5
			C300.5,73.2,301.4,72.4,302.4,71.8z M303.8,90.3c0.2,0,0.3-0.1,0.4-0.2c0.1-0.2,0.2-0.4,0.3-0.6c0.1-0.2,0.2-0.5,0.2-0.8
			c0.1-0.3,0.1-0.6,0.1-0.9c0-0.8-0.1-1.6-0.3-2.3s-0.5-1.5-0.8-2.3s-0.6-1.5-1-2.2c-0.4-0.7-0.7-1.4-1.1-2.1
			c-0.2-0.5-0.5-0.8-0.8-1.2c-0.3-0.3-0.7-0.5-1-0.5c-0.2,0-0.3,0.1-0.5,0.3c-0.1,0.2-0.2,0.4-0.3,0.7c-0.1,0.3-0.2,0.6-0.2,1
			s-0.1,0.7-0.1,1.1c0,0.5,0.1,0.9,0.2,1.3c0.1,0.4,0.2,0.9,0.3,1.3c0.1,0.6,0.4,1.2,0.7,2c0.3,0.7,0.7,1.4,1.1,2.2
			c0.4,0.7,0.9,1.4,1.4,1.9C302.9,89.6,303.4,90,303.8,90.3z"/>
		<path class="st0 korchma" d="M311.7,90.6c0.2-1.2,0.4-2.3,0.4-3.5c0.1-1.2,0.1-2.3,0.1-3.3c0-0.8,0-1.5-0.1-2.3c0-0.7-0.1-1.5-0.2-2.3
			c-0.1-0.6-0.2-1.3-0.2-1.9c-0.1-0.6-0.1-1.3-0.1-1.9c0-0.4,0.1-0.7,0.3-0.9c0.2-0.2,0.4-0.3,0.8-0.4c0.3-0.1,0.7-0.1,1.1-0.2
			c0.5-0.1,0.9-0.1,1.4-0.2s0.9-0.1,1.4-0.1c0.4,0,0.8,0,1,0c0.2,0,0.4,0,0.7,0c0.3,0,0.7,0,1,0c0.3,0,0.7,0,1,0.1
			c0.3,0,0.5,0,0.6,0.1c0.4,0.1,0.9,0.2,1.5,0.4s1,0.5,1.5,0.9c0.5,0.4,0.9,0.8,1.2,1.3c0.3,0.5,0.5,1.1,0.5,1.7
			c0,0.7-0.2,1.3-0.6,1.9c-0.4,0.6-0.8,1.1-1.4,1.6s-1.1,0.9-1.6,1.3c-0.6,0.4-1,0.7-1.4,1c-0.2,0.2-0.5,0.4-0.8,0.6
			c-0.3,0.2-0.6,0.5-0.9,0.8c-0.3,0.3-0.5,0.6-0.7,0.9c-0.2,0.3-0.3,0.6-0.3,0.8c0,0.4,0,0.7,0.1,1.1c0,0.3,0.1,0.7,0.2,1.1
			c0.1,0.4,0.1,0.8,0.2,1.2c0.1,0.4,0.1,0.8,0.1,1.2c0,0.3-0.2,0.5-0.5,0.7c-0.3,0.2-0.7,0.3-1.1,0.3c-0.4,0.1-0.9,0.1-1.4,0.1
			c-0.5,0-0.8,0-1.1,0c-0.3,0-0.6,0-0.9-0.1s-0.6-0.1-0.8-0.3c-0.2-0.1-0.4-0.3-0.6-0.6S311.7,91,311.7,90.6z M317.9,84
			c0,0.1,0.1,0.2,0.2,0.2s0.1,0,0.2,0c0.1,0,0.3-0.1,0.5-0.3s0.3-0.5,0.5-0.8c0.2-0.4,0.3-0.8,0.4-1.4c0.1-0.5,0.2-1.2,0.3-1.9
			c0-0.4,0-0.8,0-1.2s-0.1-0.9-0.2-1.3c-0.1-0.4-0.3-0.7-0.5-1c-0.2-0.3-0.6-0.4-1-0.4c-0.3,0-0.5,0.1-0.6,0.4
			c-0.1,0.2-0.1,0.5-0.1,0.8c0,0.4,0,0.9,0,1.6c0,0.6,0.1,1.3,0.1,1.9s0.1,1.3,0.2,1.9C317.7,83.1,317.8,83.6,317.9,84z"/>
		<path class="st0 korchma" d="M337.2,87.2c0-0.6,0-1.2,0-1.7c0-0.6,0-1.1,0.1-1.7c-0.3-0.1-0.8-0.3-1.4-0.4c-0.6-0.1-1.2-0.2-1.9-0.3
			c-0.7-0.1-1.3-0.3-2-0.4c-0.7-0.2-1.3-0.4-1.9-0.7c-0.6-0.3-1-0.7-1.4-1.2s-0.5-1.1-0.5-1.8l-0.2-2.7c0-0.6,0.1-1.1,0.4-1.4
			c0.3-0.3,0.7-0.4,1.2-0.4c0.6,0,1.2,0,1.8,0.1c0.6,0,1.2,0.1,1.7,0.1c0.3,0.2,0.5,0.5,0.5,0.8c0.1,0.3,0.1,0.6,0.1,1
			c0,0.6,0,1.2-0.1,1.7c-0.1,0.6-0.1,1.2-0.1,1.7c0.1,0.4,0.2,0.7,0.4,1s0.5,0.4,0.9,0.6c0.4,0.1,0.7,0.2,1.2,0.3
			c0.4,0.1,0.9,0.1,1.3,0.2c0-0.2,0-0.3,0-0.5s0-0.3,0-0.5c0-0.8-0.1-1.6-0.2-2.3c-0.1-0.8-0.2-1.6-0.2-2.3c0-0.6,0.1-1.1,0.4-1.4
			c0.3-0.3,0.7-0.4,1.2-0.4c0.6,0,1.2,0,1.8,0.1c0.6,0,1.2,0.1,1.7,0.1c0.3,0.2,0.5,0.5,0.5,0.8c0.1,0.3,0.1,0.6,0.1,1
			c0,0.7,0,1.4-0.1,2c-0.1,0.7-0.1,1.3-0.1,2c0,0.4,0,1,0,1.7c0,0.7,0.1,1.5,0.1,2.2c0.1,0.8,0.1,1.5,0.2,2.2
			c0.1,0.7,0.2,1.3,0.2,1.7c0.1,0.3,0.1,0.5,0.3,0.7c0.1,0.2,0.2,0.4,0.4,0.6s0.2,0.4,0.3,0.7c0.1,0.2,0.1,0.5,0.1,0.7
			c0,0.4-0.2,0.7-0.5,0.9c-0.3,0.2-0.7,0.4-1.1,0.6c-0.4,0.1-0.8,0.2-1.3,0.3s-0.7,0.1-0.9,0.1c-0.1,0-0.2,0-0.3,0s-0.4,0-0.6-0.1
			c-0.2,0-0.4,0-0.6-0.1c-0.2,0-0.3,0-0.4,0c-0.4,0-0.6-0.2-0.8-0.5s-0.3-0.8-0.3-1.3c-0.1-0.5-0.1-1.1-0.1-1.7
			S337.3,87.7,337.2,87.2z"/>
		<path class="st0 korchma" d="M350.9,86.5c0,1.2,0.2,2.2,0.6,2.9c0.4,0.8,0.9,1.3,1.6,1.7c-0.2,0.2-0.4,0.3-0.7,0.5s-0.5,0.3-0.7,0.4
			c-0.3,0.2-0.7,0.3-1.1,0.3s-0.8,0.1-1.2,0.1c-0.3,0-0.6,0-0.9-0.1s-0.6-0.1-0.8-0.3s-0.5-0.3-0.6-0.6c-0.2-0.2-0.3-0.6-0.3-1
			c0-0.9,0.2-1.7,0.5-2.5s0.7-1.6,1.2-2.3s1-1.4,1.5-2.1c0.6-0.7,1.1-1.3,1.6-1.9c0.1-0.2,0.3-0.3,0.4-0.4c0.1-0.1,0.2-0.3,0.2-0.6
			c0-0.3-0.1-0.7-0.2-1.1s-0.3-0.8-0.4-1.2c-0.2-0.4-0.3-0.7-0.5-1c-0.2-0.3-0.3-0.5-0.4-0.5c-0.1-0.1-0.2-0.3-0.4-0.4
			s-0.3-0.2-0.5-0.3c-0.2-0.1-0.3-0.2-0.4-0.4c-0.1-0.1-0.2-0.3-0.2-0.5c0-0.2,0.1-0.4,0.2-0.5c0.1-0.1,0.3-0.2,0.4-0.3l3.2-1.3
			c0.1,0,0.1,0,0.2-0.1s0.2,0,0.3,0c0.1,0,0.2,0,0.3,0c0.1,0,0.1,0,0.2,0c0.6,0,1,0.1,1.4,0.4c0.4,0.3,0.7,0.7,1.1,1.1
			c0.3,0.4,0.6,0.9,0.8,1.5s0.5,1,0.7,1.5c0.5,1.1,0.9,2.1,1.3,3.2c0.3,1.1,0.7,2.2,1.1,3.4c0.3-0.5,0.7-0.9,1-1.3
			c0.4-0.4,0.7-0.8,1-1.2c0.1-0.2,0.3-0.3,0.4-0.4c0.1-0.1,0.2-0.3,0.2-0.6c0-0.3-0.1-0.7-0.2-1.1s-0.3-0.8-0.4-1.2
			c-0.2-0.4-0.3-0.7-0.5-1c-0.2-0.3-0.3-0.5-0.4-0.5c-0.1-0.1-0.2-0.3-0.4-0.4s-0.3-0.2-0.5-0.3c-0.2-0.1-0.3-0.2-0.4-0.4
			c-0.1-0.1-0.2-0.3-0.2-0.5c0-0.2,0.1-0.4,0.2-0.5c0.1-0.1,0.3-0.2,0.4-0.3l3.2-1.3c0.1,0,0.1,0,0.2-0.1s0.2,0,0.3,0
			c0.1,0,0.2,0,0.3,0c0.1,0,0.1,0,0.2,0c0.6,0,1,0.1,1.4,0.4c0.4,0.3,0.7,0.7,1.1,1.1s0.6,0.9,0.8,1.5c0.2,0.5,0.5,1,0.7,1.5
			c0.3,0.7,0.6,1.4,0.9,2.1c0.3,0.7,0.5,1.5,0.7,2.2c0.2,0.7,0.5,1.5,0.7,2.3c0.2,0.8,0.5,1.5,0.7,2.2c0.1,0.4,0.3,0.8,0.5,1.2
			s0.4,0.9,0.6,1.3c0.2,0.4,0.4,0.8,0.6,1.1c0.2,0.3,0.3,0.5,0.5,0.6c-0.2,0.5-0.4,0.9-0.7,1.1c-0.3,0.3-0.7,0.5-1.1,0.6
			c-0.4,0.1-0.8,0.2-1.2,0.2c-0.4,0-0.7,0-1,0c-0.8,0-1.4-0.2-1.9-0.5c-0.4-0.3-0.7-0.7-0.9-1.1c-0.3-0.6-0.5-1-0.7-1.4
			c-0.1-0.4-0.3-0.8-0.4-1.2s-0.4-1-0.6-1.7c-0.3-0.7-0.7-1.7-1.3-2.9c-0.1-0.2-0.2-0.3-0.3-0.4c-0.1-0.1-0.3-0.2-0.4-0.2
			c0,0-0.1,0-0.2,0.1c-0.4,0.3-0.7,0.7-1,1.2s-0.5,1.1-0.7,1.7c-0.2,0.6-0.3,1.3-0.4,2c-0.1,0.7-0.1,1.4-0.1,2.1
			c0,0.8,0.1,1.5,0.2,2.2c-0.4,0.1-0.7,0.2-1.1,0.2c-0.4,0-0.7,0-0.9,0c-0.8,0-1.4-0.2-1.9-0.5c-0.4-0.3-0.7-0.7-0.9-1.1
			c-0.3-0.6-0.5-1-0.7-1.4c-0.1-0.4-0.3-0.8-0.4-1.2s-0.4-1-0.6-1.7c-0.3-0.7-0.7-1.7-1.3-2.9c-0.1-0.2-0.2-0.4-0.4-0.4
			c-0.2-0.1-0.3-0.1-0.4-0.1c-0.3,0-0.5,0.1-0.7,0.4c-0.2,0.2-0.4,0.5-0.5,0.8s-0.2,0.7-0.3,1C350.9,85.9,350.9,86.2,350.9,86.5z"/>
		<path class="st0 korchma" d="M382.5,73.3c0.1,0,0.1,0,0.2-0.1s0.2,0,0.3,0c0.1,0,0.2,0,0.3,0c0.1,0,0.1,0,0.2,0c0.6,0,1,0.1,1.4,0.4
			c0.4,0.3,0.7,0.7,1.1,1.1c0.3,0.4,0.6,0.9,0.8,1.5s0.5,1,0.7,1.5c0.3,0.7,0.6,1.4,0.9,2.1c0.3,0.7,0.5,1.5,0.7,2.2
			c0.2,0.7,0.5,1.5,0.7,2.3c0.2,0.8,0.5,1.5,0.7,2.2c0.1,0.4,0.3,0.8,0.5,1.2c0.2,0.5,0.4,0.9,0.6,1.3c0.2,0.4,0.4,0.8,0.6,1.1
			c0.2,0.3,0.3,0.5,0.5,0.6c-0.2,0.5-0.4,0.9-0.7,1.1s-0.7,0.5-1.1,0.6c-0.4,0.1-0.8,0.2-1.2,0.2c-0.4,0-0.7,0-1,0
			c-0.7,0-1.2-0.1-1.6-0.4c-0.4-0.2-0.7-0.5-0.9-0.8c-0.2-0.3-0.4-0.6-0.6-0.8c-0.2-0.2-0.4-0.4-0.7-0.4c-0.4,0-0.7,0.1-1,0.2
			c-0.3,0.1-0.6,0.3-0.8,0.5s-0.5,0.4-0.8,0.6c-0.3,0.2-0.6,0.4-0.9,0.6c-0.3,0.2-0.7,0.3-1.1,0.3s-0.8,0.1-1.2,0.1
			c-0.3,0-0.6,0-0.9-0.1s-0.6-0.1-0.8-0.3s-0.5-0.3-0.6-0.6c-0.2-0.2-0.3-0.6-0.3-1c0-0.9,0.2-1.7,0.5-2.5s0.7-1.6,1.2-2.3
			s1-1.4,1.5-2.1c0.6-0.7,1.1-1.3,1.6-1.9c0.1-0.2,0.3-0.3,0.4-0.4c0.1-0.1,0.2-0.3,0.2-0.6c0-0.3-0.1-0.7-0.2-1.1s-0.3-0.8-0.4-1.2
			c-0.2-0.4-0.3-0.7-0.5-1c-0.2-0.3-0.3-0.5-0.4-0.5c-0.1-0.1-0.2-0.3-0.4-0.4s-0.3-0.2-0.5-0.3c-0.2-0.1-0.3-0.2-0.4-0.4
			c-0.1-0.1-0.2-0.3-0.2-0.5c0-0.2,0.1-0.4,0.2-0.5c0.1-0.1,0.3-0.2,0.4-0.3L382.5,73.3z M380.4,86.5c0,0.4,0.1,0.8,0.3,1.1
			c0.2,0.3,0.4,0.5,0.7,0.6s0.6,0.2,0.9,0.3c0.3,0,0.7,0.1,0.9,0.1c0.3,0,0.6-0.1,0.7-0.3c0.2-0.2,0.3-0.4,0.3-0.7
			c0-0.1,0-0.2-0.1-0.4c0-0.1-0.1-0.3-0.1-0.4c-0.1-0.1-0.1-0.3-0.3-0.6s-0.3-0.6-0.4-0.9c-0.1-0.3-0.3-0.6-0.4-0.9
			c-0.1-0.3-0.2-0.5-0.3-0.6c-0.1-0.2-0.2-0.4-0.4-0.4c-0.2-0.1-0.3-0.1-0.4-0.1c-0.3,0-0.5,0.1-0.7,0.4s-0.4,0.5-0.5,0.9
			c-0.1,0.3-0.2,0.7-0.3,1.1C380.4,86,380.4,86.3,380.4,86.5z"/>
	</g>
</svg>