<svg id="Слой_1" xmlns="http://www.w3.org/2000/svg" viewBox="0 0 224 50"><style>.st0{fill:#c94c44}</style><g id="pattern"><g id="pattern_3_"><path class="st0" d="M16.7 1h1.7v1.7h-1.7zM15-.7h1.7V1H15zm-1.7-3.4H15v1.7h-1.7zm-1.7-1.7h1.7v1.7h-1.7zm10.2 0h1.7v1.7h-1.7zm-1.7 1.7h1.7v1.7h-1.7zm0 6.8h1.7v1.7h-1.7zm1.7 1.7h1.7v1.7h-1.7zm-10.2 0h1.7v1.7h-1.7zm1.7-1.7H15v1.7h-1.7zm-1.7-6.8h1.7v1.7h-1.7zm1.7-1.7H15v1.7h-1.7zm5.1 5.1h1.7V1h-1.7zm-1.7-1.7h1.7v1.7h-1.7z"/><path class="st0" d="M16.7 4.4V2.7H15V1H9.9v1.7H8.2v1.7H6.5v1.7h5.1v5.1h1.7V9.5H15V7.8h1.7V4.4zm-3.4 1.7h-1.7V4.4h1.7v1.7zM15 4.4h-1.7V2.7H15v1.7zm5.1-1.7h-1.7v5.1h1.7v1.7h1.7v1.7h1.7V6.1h5.1V4.4h-1.7V2.7h-1.7V1h-5.1v1.7zm1.7 1.7h1.7v1.7h-1.7V4.4zm-1.7-1.7h1.7v1.7h-1.7V2.7zm6.8-8.5h-3.4v-5.1h-1.7v1.7h-1.7v1.7h-1.7v5.1h1.7v1.7h5.1v-1.7h1.7v-1.7h1.7v-1.7h-1.7zm-5.1 3.4h-1.7v-1.7h1.7v1.7zm1.7-1.7h-1.7v-1.7h1.7v1.7zm-6.8-6.8h1.7v1.7h-1.7zM-.3 0v1h1.7V-.7H-.3V0m54.4 1h1.7v1.7h-1.7zM52.4-.7h1.7V1h-1.7zm-1.7-3.4h1.7v1.7h-1.7zM49-5.8h1.7v1.7H49zm10.2 0h1.7v1.7h-1.7zm-1.7 1.7h1.7v1.7h-1.7zm0 6.8h1.7v1.7h-1.7zm1.7 1.7h1.7v1.7h-1.7zM49 4.4h1.7v1.7H49zm1.7-1.7h1.7v1.7h-1.7zM49-4.1h1.7v1.7H49zm1.7-1.7h1.7v1.7h-1.7zm5.1 5.1h1.7V1h-1.7zm-1.7-1.7h1.7v1.7h-1.7z"/><path class="st0" d="M54.1 4.4V2.7h-1.7V1h-5.1v1.7h-1.7v1.7h-1.7v1.7H49v5.1h1.7V9.5h1.7V7.8h1.7V4.4zm-3.4 1.7H49V4.4h1.7v1.7zm1.7-1.7h-1.7V2.7h1.7v1.7zm5.1-1.7h-1.7v5.1h1.7v1.7h1.7v1.7h1.7V6.1H66V4.4h-1.7V2.7h-1.7V1h-5.1v1.7zm1.7 1.7h1.7v1.7h-1.7V4.4zm-1.7-1.7h1.7v1.7h-1.7V2.7zm-3.6-5.1h.2v-5.1h-1.7v-1.7h-1.7v-1.7H49v5.1h-5.1v1.7h1.7v1.7h1.7v1.7h5.1v-1.7h1.5zm-3.2-1.7H49v-1.7h1.7v1.7zm1.7 1.7h-1.7v-1.7h1.7v1.7zm11.9-3.4h-3.4v-5.1h-1.7v1.7h-1.7v1.7h-1.7v5.1h1.7v1.7h5.1v-1.7h1.7v-1.7H66v-1.7h-1.7zm-5.1 3.4h-1.7v-1.7h1.7v1.7zm1.7-1.7h-1.7v-1.7h1.7v1.7zm-6.8-6.8h1.7v1.7h-1.7zM91.5 1h1.7v1.7h-1.7zM89.8-.7h1.7V1h-1.7zm-1.7-3.4h1.7v1.7h-1.7zm-1.7-1.7h1.7v1.7h-1.7zm10.2 0h1.7v1.7h-1.7zm-1.7 1.7h1.7v1.7h-1.7zm0 6.8h1.7v1.7h-1.7zm1.7 1.7h1.7v1.7h-1.7zm-10.2 0h1.7v1.7h-1.7zm1.7-1.7h1.7v1.7h-1.7z"/><path class="st0" d="M86.4-4.1h1.7v1.7h-1.7zm1.7-1.7h1.7v1.7h-1.7zm5.1 5.1h1.7V1h-1.7zm-1.7-1.7h1.7v1.7h-1.7zm0 6.8V2.7h-1.7V1h-5.1v1.7H83v1.7h-1.7v1.7h5.1v5.1h1.7V9.5h1.7V7.8h1.7V4.4zm-3.4 1.7h-1.7V4.4h1.7v1.7zm1.7-1.7h-1.7V2.7h1.7v1.7zm5.1-1.7h-1.7v5.1h1.7v1.7h1.7v1.7h1.7V6.1h5.1V4.4h-1.7V2.7H100V1h-5.1v1.7zm1.7 1.7h1.7v1.7h-1.7V4.4zm-1.7-1.7h1.7v1.7h-1.7V2.7z"/><path class="st0" d="M91.3-2.4h.2v-5.1h-1.7v-1.7h-1.7v-1.7h-1.7v5.1h-5.1v1.7H83v1.7h1.7v1.7h5.1v-1.7h1.5zm-3.2-1.7h-1.7v-1.7h1.7v1.7zm1.7 1.7h-1.7v-1.7h1.7v1.7zm11.9-3.4h-3.4v-5.1h-1.7v1.7h-1.7v1.7h-1.7v5.1h1.7v1.7h5.1v-1.7h1.7v-1.7h1.7v-1.7h-1.7zm-5.1 3.4h-1.7v-1.7h1.7v1.7zm1.7-1.7h-1.7v-1.7h1.7v1.7zm-6.8-6.8h1.7v1.7h-1.7zM128.9 1h1.7v1.7h-1.7zm-1.7-1.7h1.7V1h-1.7zm-1.7-3.4h1.7v1.7h-1.7zm-1.7-1.7h1.7v1.7h-1.7zm10.2 0h1.7v1.7H134zm-1.7 1.7h1.7v1.7h-1.7zm0 6.8h1.7v1.7h-1.7zm1.7 1.7h1.7v1.7H134zm-10.2 0h1.7v1.7h-1.7zm1.7-1.7h1.7v1.7h-1.7zm-1.7-6.8h1.7v1.7h-1.7zm1.7-1.7h1.7v1.7h-1.7zm5.1 5.1h1.7V1h-1.7zm-1.7-1.7h1.7v1.7h-1.7z"/><path class="st0" d="M128.9 4.4V2.7h-1.7V1h-5.1v1.7h-1.7v1.7h-1.7v1.7h5.1v5.1h1.7V9.5h1.7V7.8h1.7V4.4zm-3.4 1.7h-1.7V4.4h1.7v1.7zm1.7-1.7h-1.7V2.7h1.7v1.7zm5.1-1.7h-1.7v5.1h1.7v1.7h1.7v1.7h1.7V6.1h5.1V4.4h-1.7V2.7h-1.7V1h-5.1v1.7zm1.7 1.7h1.7v1.7H134V4.4zm-1.7-1.7h1.7v1.7h-1.7V2.7zm-3.6-5.1h.2v-5.1h-1.7v-1.7h-1.7v-1.7h-1.7v5.1h-5.1v1.7h1.7v1.7h1.7v1.7h5.1v-1.7h1.5zm-3.2-1.7h-1.7v-1.7h1.7v1.7zm1.7 1.7h-1.7v-1.7h1.7v1.7zm11.9-3.4h-3.4v-5.1H134v1.7h-1.7v1.7h-1.7v5.1h1.7v1.7h5.1v-1.7h1.7v-1.7h1.7v-1.7h-1.7zM134-2.4h-1.7v-1.7h1.7v1.7zm1.7-1.7H134v-1.7h1.7v1.7zm-6.8-6.8h1.7v1.7h-1.7zM166.3 1h1.7v1.7h-1.7zm-1.7-1.7h1.7V1h-1.7zm-1.7-3.4h1.7v1.7h-1.7zm-1.7-1.7h1.7v1.7h-1.7zm10.2 0h1.7v1.7h-1.7zm-1.7 1.7h1.7v1.7h-1.7zm0 6.8h1.7v1.7h-1.7zm1.7 1.7h1.7v1.7h-1.7zm-10.2 0h1.7v1.7h-1.7zm1.7-1.7h1.7v1.7h-1.7zm-1.7-6.8h1.7v1.7h-1.7zm1.7-1.7h1.7v1.7h-1.7zM168-.7h1.7V1H168zm-1.7-1.7h1.7v1.7h-1.7z"/><path class="st0" d="M169.7 2.7H168v5.1h1.7v1.7h1.7v1.7h1.7V6.1h5.1V4.4h-1.7V2.7h-1.7V1h-5.1v1.7zm1.7 1.7h1.7v1.7h-1.7V4.4zm-1.7-1.7h1.7v1.7h-1.7V2.7zm6.8-8.5h-3.4v-5.1h-1.7v1.7h-1.7v1.7H168v5.1h1.7v1.7h5.1v-1.7h1.7v-1.7h1.7v-1.7h-1.7zm-5.1 3.4h-1.7v-1.7h1.7v1.7zm1.7-1.7h-1.7v-1.7h1.7v1.7zm-6.8-6.8h1.7v1.7h-1.7zM203.7 1h1.7v1.7h-1.7zM202-.7h1.7V1H202zm-1.7-3.4h1.7v1.7h-1.7zm-1.7-1.7h1.7v1.7h-1.7zm10.2 0h1.7v1.7h-1.7zm-1.7 1.7h1.7v1.7h-1.7zm0 6.8h1.7v1.7h-1.7zm1.7 1.7h1.7v1.7h-1.7zm-10.2 0h1.7v1.7h-1.7zm1.7-1.7h1.7v1.7h-1.7zm-1.7-6.8h1.7v1.7h-1.7zm1.7-1.7h1.7v1.7h-1.7zm5.1 5.1h1.7V1h-1.7zm-1.7-1.7h1.7v1.7h-1.7z"/><path class="st0" d="M203.7 4.4V2.7H202V1h-5.1v1.7h-1.7v1.7h-1.7v1.7h5.1v5.1h1.7V9.5h1.7V7.8h1.7V4.4zm-3.4 1.7h-1.7V4.4h1.7v1.7zm1.7-1.7h-1.7V2.7h1.7v1.7zm5.1-1.7h-1.7v5.1h1.7v1.7h1.7v1.7h1.7V6.1h5.1V4.4h-1.7V2.7h-1.7V1h-5.1v1.7zm1.7 1.7h1.7v1.7h-1.7V4.4zm-1.7-1.7h1.7v1.7h-1.7V2.7zm-3.6-5.1h.2v-5.1H202v-1.7h-1.7v-1.7h-1.7v5.1h-5.1v1.7h1.7v1.7h1.7v1.7h5.1v-1.7h1.5zm-3.2-1.7h-1.7v-1.7h1.7v1.7zm1.7 1.7h-1.7v-1.7h1.7v1.7zm11.9-3.4h-3.4v-5.1h-1.7v1.7h-1.7v1.7h-1.7v5.1h1.7v1.7h5.1v-1.7h1.7v-1.7h1.7v-1.7h-1.7zm-5.1 3.4h-1.7v-1.7h1.7v1.7zm1.7-1.7h-1.7v-1.7h1.7v1.7zm-6.8-6.8h1.7v1.7h-1.7zM164.6 1h-5.1v1.7h-1.7v1.7h-1.7v1.7h5.1v5.1h1.7V9.5h1.7V7.8h1.7V2.7h-1.7V1zm-1.7 5.1h-1.7V4.4h1.7v1.7zm1.7-1.7h-1.7V2.7h1.7v1.7zm0-13.6h-1.7v-1.7h-1.7v5.1h-5.1v1.7h1.7v1.7h1.7v1.7h5.1v-1.7h1.7v-5.1h-1.7v-1.7zm-1.7 5.1h-1.7v-1.7h1.7v1.7zm1.7 1.7h-1.7v-1.7h1.7v1.7z"/><path class="st0" d="M224.1 0v-2.4h-1.7v-1.7h1.7V-16H-.3v13.6h1.7v1.7h1.7V1H1.4v1.7H-.3v13.5h224V4.4H222V2.7h1.7V0m-9.8-12.6v-1.7h5.1v5.1h-1.7v-1.7h-1.7v-1.7h-1.7zm-23.8 3.4v-5.1h5.1v1.7h-1.7v1.7h-1.7v1.7h-1.7zM185-4.1h1.7v1.7H185v-1.7zm-8.5-10.2h5.1v5.1h-1.7v-1.7h-1.7v-1.7h-1.7v-1.7zm-23.8 5.1v-5.1h5.1v1.7h-1.7v1.7h-1.7v1.7h-1.7zm-5.1 5.1h1.7v1.7h-1.7v-1.7zm-8.5-8.5v-1.7h5.1v5.1h-1.7v-1.7h-1.7v-1.7h-1.7zm-23.8 3.4v-5.1h5.1v1.7h-1.7v1.7H117v1.7h-1.7zm-5.1 5.1h1.7v1.7h-1.7v-1.7zm-8.5-10.2h5.1v5.1h-1.7v-1.7h-1.7v-1.7h-1.7v-1.7zM77.9-9.2v-5.1H83v1.7h-1.7v1.7h-1.7v1.7h-1.7zm-5.1 5.1h1.7v1.7h-1.7v-1.7zm-8.5-10.2h5.1v5.1h-1.7v-1.7H66v-1.7h-1.7v-1.7zM40.5-9.2v-5.1h5.1v1.7h-1.7v1.7h-1.7v1.7h-1.7zm-5.1 5.1h1.7v1.7h-1.7v-1.7zm-8.5-10.2H32v5.1h-1.7v-1.7h-1.7v-1.7h-1.7v-1.7zM3.1-9.2v-5.1h5.1v1.7H6.5v1.7H4.8v1.7H3.1zm5.1 22.1v1.7H3.1V9.5h1.7v1.7h1.7v1.7h1.7zm18.7-5.1h-1.7v6.8h-3.4v-1.7h-1.7v-1.7h-1.7V9.5h-1.7v1.7H15v1.7h-1.7v1.7H9.9V7.8H3.1V4.4h1.7V2.7h1.7V1h1.7V-.7H6.5v-1.7H4.8v-1.7H3.1v-3.4h6.8v-6.8h3.4v1.7H15v1.7h1.7v1.7h1.7v-1.7h1.7v-1.7h1.7v-1.7h3.4v6.8H32v3.4h-1.7v1.7h-1.7v1.7h-1.7V1h1.7v1.7h1.7v1.7H32v3.4h-5.1zM32 10v4.6h-5.1v-1.7h1.7v-1.7h1.7V9.5H32v.5zm1.7-7.3V1H32V-.7h1.7v-1.7h1.7v1.7h-1.7V1h1.7v1.7h-1.7zm3.4 1.7h-1.7V2.7h1.7v1.7zm1.7-1.7h-1.7V1h1.7V-.7h-1.7v-1.7h1.7v1.7h1.7V1h-1.7v1.7zm6.8 10.2v1.7h-5.1V9.5h1.7v1.7h1.7v1.7h1.7zm18.7-5.1h-1.7v6.8h-3.4v-1.7h-1.7v-1.7h-1.7V9.5h-1.7v1.7h-1.7v1.7h-1.7v1.7h-3.4V7.8h-6.8V4.4h1.7V2.7h1.7V1h1.7V-.7h-1.7v-1.7h-1.7v-1.7h-1.7v-3.4h6.8v-6.8h3.4v1.7h1.7v1.7h1.7v1.7h1.7v-1.7h1.7v-1.7h1.7v-1.7h3.4v6.8h6.8v3.4h-1.7v1.7H66v1.7h-1.7V1H66v1.7h1.7v1.7h1.7v3.4h-5.1zm5.1 2.2v4.6h-5.1v-1.7H66v-1.7h1.7V9.5h1.7v.5zm1.7-7.3V1h-1.7V-.7h1.7v-1.7h1.7v1.7h-1.7V1h1.7v1.7h-1.7zm3.4 1.7h-1.7V2.7h1.7v1.7zm1.7-1.7h-1.7V1h1.7V-.7h-1.7v-1.7h1.7v1.7h1.7V1h-1.7v1.7zM83 12.9v1.7h-5.1V9.5h1.7v1.7h1.7v1.7H83zm18.7-5.1H100v6.8h-3.4v-1.7h-1.7v-1.7h-1.7V9.5h-1.7v1.7h-1.7v1.7h-1.7v1.7h-3.4V7.8h-6.8V4.4h1.7V2.7h1.7V1H83V-.7h-1.7v-1.7h-1.7v-1.7h-1.7v-3.4h6.8v-6.8h3.4v1.7h1.7v1.7h1.7v1.7h1.7v-1.7h1.7v-1.7h1.7v-1.7h3.4v6.8h6.8v3.4h-1.7v1.7h-1.7v1.7h-1.7V1h1.7v1.7h1.7v1.7h1.7v3.4h-5.1zm5.1 2.2v4.6h-5.1v-1.7h1.7v-1.7h1.7V9.5h1.7v.5zm1.7-7.3V1h-1.7V-.7h1.7v-1.7h1.7v1.7h-1.7V1h1.7v1.7h-1.7zm3.4 1.7h-1.7V2.7h1.7v1.7zm1.7-1.7h-1.7V1h1.7V-.7h-1.7v-1.7h1.7v1.7h1.7V1h-1.7v1.7zm6.8 10.2v1.7h-5.1V9.5h1.7v1.7h1.7v1.7h1.7zm18.7-5.1h-1.7v6.8H134v-1.7h-1.7v-1.7h-1.7V9.5h-1.7v1.7h-1.7v1.7h-1.7v1.7h-3.4V7.8h-6.8V4.4h1.7V2.7h1.7V1h1.7V-.7h-1.7v-1.7H117v-1.7h-1.7v-3.4h6.8v-6.8h3.4v1.7h1.7v1.7h1.7v1.7h1.7v-1.7h1.7v-1.7h1.7v-1.7h3.4v6.8h6.8v3.4h-1.7v1.7h-1.7v1.7h-1.7V1h1.7v1.7h1.7v1.7h1.7v3.4h-5.1zm5.1 2.2v4.6h-5.1v-1.7h1.7v-1.7h1.7V9.5h1.7v.5zm1.7-7.3V1h-1.7V-.7h1.7v-1.7h1.7v1.7h-1.7V1h1.7v1.7h-1.7zm3.4 1.7h-1.7V2.7h1.7v1.7zm1.7-1.7h-1.7V1h1.7V-.7h-1.7v-1.7h1.7v1.7h1.7V1H151v1.7zm6.8 10.2v1.7h-5.1V9.5h1.7v1.7h1.7v1.7h1.7zm18.7-5.1h-1.7v6.8h-3.4v-1.7h-1.7v-1.7H168V9.5h-1.7v1.7h-1.7v1.7h-1.7v1.7h-3.4V7.8h-6.8V4.4h1.7V2.7h1.7V1h1.7V-.7h-1.7v-1.7h-1.7v-1.7h-1.7v-3.4h6.8v-6.8h3.4v1.7h1.7v1.7h1.7v1.7h1.7v-1.7h1.7v-1.7h1.7v-1.7h3.4v6.8h6.8v3.4h-1.7v1.7h-1.7v1.7h-1.7V1h1.7v1.7h1.7v1.7h1.7v3.4h-5.1zm5.1 2.2v4.6h-5.1v-1.7h1.7v-1.7h1.7V9.5h1.7v.5zm1.7-7.3V1h-1.7V-.7h1.7v-1.7h1.7v1.7h-1.7V1h1.7v1.7h-1.7zm3.4 1.7H185V2.7h1.7v1.7zm1.7-1.7h-1.7V1h1.7V-.7h-1.7v-1.7h1.7v1.7h1.7V1h-1.7v1.7zm6.8 10.2v1.7h-5.1V9.5h1.7v1.7h1.7v1.7h1.7zm18.7-5.1h-1.7v6.8h-3.4v-1.7h-1.7v-1.7h-1.7V9.5h-1.7v1.7H202v1.7h-1.7v1.7h-3.4V7.8h-6.8V4.4h1.7V2.7h1.7V1h1.7V-.7h-1.7v-1.7h-1.7v-1.7h-1.7v-3.4h6.8v-6.8h3.4v1.7h1.7v1.7h1.7v1.7h1.7v-1.7h1.7v-1.7h1.7v-1.7h3.4v6.8h6.8v3.4h-1.7v1.7h-1.7v1.7h-1.7V1h1.7v1.7h1.7v1.7h1.7v3.4h-5.1zM219 10v4.6h-5.1v-1.7h1.7v-1.7h1.7V9.5h1.7v.5zm3.4-10.7h-1.7V1h1.7v1.7h-1.7V1H219V-.7h1.7v-1.7h1.7v1.7zm-17 25.9l-1.3 1.2 1.3 1.3 1.2-1.3zm-37.4 0l-1.3 1.2 1.3 1.3 1.2-1.3zm-37.4 0l-1.3 1.2 1.3 1.3 1.3-1.3zm-36.2 1.2l-1.2-1.2-1.3 1.2 1.3 1.3zm-37.4 0l-1.2-1.2-1.3 1.2 1.3 1.3zm-37.4 0l-1.2-1.2-1.3 1.2 1.3 1.3z"/><path class="st0" d="M-.3 29.8l6-5.9h4.2l6.8 6.7-6.4 6.3-2.6-2.5 4.2-4.1-1.7-1.6L9 27.5l-.4-.5L7 28.5l.6.5 1-1 1.2 1.2-2.2 2.1-1.2-1.2-.5-.5-1.6 1.5.5.5 1-1L7 31.7l-2.1 2.1-1.2-1.2-.5-.5-1.6 1.5.5.5 1-1 1.2 1.2-1.2 1.2-1-1-.4.5 1.6 1.5.5-.5L5 34.8 7.1 37l-1.2 1.1-1-1-.5.5L6 39.1l.5-.5 1.2-1.2 2.2 2.1-1.2 1.2-1-1-.7.5 1.6 1.5.5-.5 1.2-1.2 1.2 1.2.5.5 1.6-1.5-.6-.5-1 1-1.2-1.2 2.2-2.1 1.2 1.2.5.5 1.6-1.5-.5-.5-1 1-1.3-1.1 2.1-2.1 1.2 1.2.5.5 1.1-1 1.1 1 .5-.6 1.2-1.2 2.1 2.1-1.2 1.2-1-1-.5.5 1.6 1.5.5-.5 1.2-1.2 2.2 2.1-1.2 1.2-1-1-.5.5 1.6 1.5.5-.5 1.2-1.2 1.2 1.2.5.5 1.6-1.5-.5-.5-1 1-1.5-1.1 2.2-2.1 1.2 1.2.5.5 1.6-1.5-.5-.5-1 1-1.3-1.2 2.1-2.1L33 36l.5.5 1.6-1.5-.5-.5-1 1-1.2-1.2 1.2-1.2 1 1 .5-.5-1.6-1.5-.5.6-1.2 1.2-2.1-2.1 1.2-1.1 1 1 .5-.5-1.6-1.5-.5.5-1.2 1.2-2.1-2.2 1.2-1.2 1 1 .5-.5-1.5-1.5-.5.5-1.2 1.2-1.7 1.6 4.2 4.1-2.6 2.5-6.4-6.3 6.8-6.7H31l6 5.9 6-5.9h4.2l6.8 6.7-6.4 6.3-2.6-2.5 4.2-4.1-1.7-1.6-1.2-1.2-.3-.5-1.5 1.5.5.5 1-1 1.2 1.2-2.2 2.1-1.2-1.2-.5-.5-1.6 1.5.5.5 1-1 1.2 1.1-2.1 2.1-1.2-1.2-.5-.5-1.6 1.5.5.5 1-1 1.2 1.2-1.2 1.2-1-1-.4.5 1.6 1.5.5-.5 1.2-1.2 2.1 2.1-1.2 1.1-1-1-.5.5 1.6 1.5.5-.5 1.2-1.2 2.2 2.1-1.3 1.4-1-1-.5.5 1.6 1.5.5-.5 1.2-1.2 1.2 1.2.5.5 1.6-1.5-.5-.5-1 1-1.2-1.2 2.2-2.1 1.2 1.2.5.5 1.6-1.5-.5-.5-1 1-1.5-1.2 2.1-2.1 1.2 1.2.5.5 1.1-1 1.1 1 .5-.5 1.2-1.2 2.1 2.1-1.2 1.2-1-1-.5.5 1.6 1.5.5-.5 1.2-1.2 2.2 2.1-1.2 1.2-1-1-.5.5 1.6 1.5.5-.5 1.2-1.2 1.2 1.2.5.5 1.6-1.5-.5-.5-1 1-1.2-1.2 2.2-2.1 1.2 1.2.5.5 1.6-1.5-.5-.5-1 1-1.6-1.2 2.1-2.1 1.2 1.2.5.5 1.6-1.5-.5-.5-1 1-1.2-1.2 1.2-1.2 1 1 .5-.5-1.6-1.5-.5.5-1.2 1.2-2.1-2.1 1.2-1.1 1 1 .5-.5-1.6-1.5-.5.5-1.2 1.2-2.2-2.1 1.2-1.2 1 1 .5-.5-1.4-1.6-.6.5-1.2 1.2-1.7 1.6 4.2 4.1-2.6 2.5-6.4-6.3 6.8-6.7h4.2l6 5.9 6-5.9h4.2l6.8 6.7-6.4 6.3-2.6-2.5 4.2-4.1-1.7-1.6-1.2-1.2-.2-.5-1.5 1.5.5.5 1-1 1.2 1.2-2.2 2.1-1.2-1.2-.5-.5-1.6 1.5.5.5 1-1 1.2 1.1-2.1 2.1-1.2-1.2-.5-.5-1.6 1.5.5.5 1-1 1.2 1.2-1.2 1.2-1-1-.4.5 1.6 1.5.5-.5 1.2-1.2 2.1 2.1-1.2 1.1-1-1-.5.5 1.6 1.5.5-.5 1.2-1.2 2.2 2.1-1.2 1.2-1-1-.5.5 1.6 1.5.5-.5 1.2-1.2 1.2 1.2.5.5 1.6-1.5-.5-.5-1 1-1.2-1.2 2.2-2.1 1.2 1.2.5.5 1.6-1.5-.5-.5-1 1-1.6-1 2.1-2.1 1.2 1.2.5.5 1.1-1 1.1 1 .5-.5 1.2-1.2 2.1 2.1-1.2 1.2-1-1-.5.5 1.6 1.5.5-.5 1.2-1.2 2.2 2.1-1.2 1.2-1-1-.7.4 1.6 1.5.5-.5 1.2-1.2 1.2 1.2.5.5 1.6-1.5-.5-.5-1 1-1.2-1.2 2.2-2.1 1.2 1.2.5.5 1.6-1.5-.5-.5-1 1-1.2-1.1 2.1-2.1 1.2 1.2.5.5 1.6-1.5-.5-.5-1 1-1.2-1.2 1.2-1.2 1 1 .5-.5-1.6-1.5-.5.5-1.2 1.2-2.1-2.1 1.2-1.1 1 1 .5-.5-1.6-1.5-.5.5-1.2 1.2-2.2-2.1L103 28l1 1 .5-.5L103 27l-.5.5-1.2 1.2-1.7 1.6 4.2 4.1-2.6 2.5-6.4-6.3 6.8-6.7h4.2l6 5.9 6-5.9h4.2l6.8 6.7-6.4 6.3-2.6-2.5 4.2-4.1-1.7-1.6-1.2-1.2-.5-.5-1.5 1.5.5.5 1-1 1.2 1.2-2.2 2.1-1.2-1.2-.5-.5-1.6 1.5.5.5 1-1 1.2 1.1-2.1 2.1-1.2-1.2-.5-.5-1.6 1.5.5.5 1-1 1.2 1.2-1.2 1.2-1-1-.5.5 1.6 1.5.8-.5 1.2-1.2 2.1 2.1-1.2 1.1-1-1-.5.5 1.6 1.5.5-.5 1.2-1.2 2.2 2.1-1.2 1.2-1-1-.5.5 1.6 1.5.5-.5 1.2-1.2 1.2 1.2.5.5 1.6-1.5-.5-.5-1 1-1.2-1.2 2.2-2.1 1.2 1.2.5.5 1.6-1.5-.5-.5-1 1-1.2-1.2 2.1-2.1.8 1.3.5.5 1.1-1 1.1 1 .5-.5 1.2-1.2 2.1 2.1-1.2 1.2-1-1-.5.5 1.6 1.5.5-.5 1.2-1.2 2.2 2.1-1.2 1.2-1-1-.5.5 1.6 1.5.5-.5 1.2-1.2 1.2 1.2.5.5 1.6-1.5-.5-.5-1 1-1.2-1.2 2.2-2.1 1.2 1.2.5.5 1.6-1.5-.5-.5-1 1-1.2-1.1 2.1-2.1 1.2 1.2.5.5 1.6-1.5-.5-.5-1 1-1.2-1.2 1.2-1.2 1 1 .5-.5-1.6-1.5-.5.5-1.2 1.2-2.1-2.1 1.2-1.1 1 1 .5-.5-1.6-1.5-.5.5-1.2 1.2-2.2-2.1 1.2-1.2 1 1 .5-.5-1.5-1.5-.5.5-1.2 1.2-1.7 1.6 4.2 4.1-2.6 2.5-6.4-6.3 6.8-6.7h4.2l6 5.9 6-5.9h4.2l6.8 6.7-6.4 6.3-2.6-2.5 4.2-4.1-1.7-1.6-1.2-1.2-.5-.5-1.5 1.5.5.5 1-1 1.2 1.2-2.2 2.1-1.2-1.2-.5-.5-1.6 1.5.5.5 1-1 1.2 1.1-2.1 2.1-1.2-1.2-.5-.5-1.6 1.5.5.5 1-1 1.2 1.2-1.2 1.2-1-1-.5.5 1.6 1.5.5-.5 1.2-1.2 2.1 2.1-1.2 1.1-1-1-.5.5 1.6 1.5.5-.5 1.2-1.2 2.2 2.1-1.2 1.2-1-1-.5.5 1.6 1.5.5-.5 1.2-1.2 1.2 1.2.5.5 1.6-1.5-.5-.5-1 1-1.2-1.2 2.2-2.1 1.2 1.2.5.5 1.6-1.5-.5-.5-1 1-1.2-1.2 2.1-2.1 1.2 1.2.5.5 1.1-1 1.1 1 .5-.5 1.2-1.2 2.1 2.1-1.2 1.2-1-1-.5.5 1.6 1.5.5-.5 1.2-1.2 2.2 2.1-1.2 1.2-1-1-.5.5 1.6 1.5.5-.5 1.2-1.2 1.2 1.2.5.5 1.6-1.5-.5-.5-1 1-1.2-1.2 2.2-2.1 1.2 1.2.5.5 1.6-1.5-.5-.5-1 1-1.2-1.1 2.1-2.1 1.2 1.2.5.5 1.6-1.5-.5-.5-1 1-1.2-1.2 1.2-1.2 1 1 .5-.5-1.6-1.5-.5.5-1.2 1.2-2.1-2.1 1.2-1.1 1 1 .5-.5-1.6-1.5-.5.5-1.2 1.2-2.2-2.1 1.2-1.2 1 1 .5-.5-1.5-1.5-.5.5-1.2 1.2-1.7 1.6 4.2 4.1-2.6 2.5-6.4-6.3 6.8-6.7h4.2l6 5.9 6-5.9h4.2l6.8 6.7-6.4 6.3-2.6-2.5 4.2-4.1-1.7-1.6-1.2-1.2-.5-.5-1.5 1.5.5.5 1-1 1.2 1.2-2.2 2.1-1.2-1.2-.5-.5-1.6 1.5.5.5 1-1 1.2 1.1-2.1 2.1-1.2-1.2-.5-.5-1.6 1.5.5.5 1-1 1.2 1.2-1.2 1.2-1-1-.5.5 1.6 1.5.5-.5 1.2-1.2 2.1 2.1-1.2 1.1-1-1-.5.5 1.6 1.5.5-.5 1.2-1.2 2.2 2.1-1.2 1.2-1-1-.5.5 1.6 1.5.5-.5 1.2-1.2 1.2 1.2.5.5 1.6-1.5-.5-.5-1 1-1.2-1.2 2.2-2.1 1.2 1.2.5.5 1.6-1.5-.5-.5-1 1-1.2-1.2 2.1-2.1 1.2 1.2.5.5 1.1-1 1.1 1-.3-.5 1.2-1.2 2.1 2.1-1.2 1.2-1-1-.5.5 1.6 1.5.5-.5 1.2-1.2 2.2 2.1-1.2 1.2-1-1-.5.5 1.6 1.5.5-.5 1.2-1.2 1.2 1.2.5.5 1.6-1.5-.5-.5-1 1-1.2-1.2 2.2-2.1 1.2 1.2.5.5 1.6-1.5-.5-.5-1 1-1.2-1.1 2.1-2.1.8 1.1.5.5 1.6-1.5-.5-.5-1 1-1.2-1.2 1.2-1.2 1 1 .5-.5-1.6-1.5-.5.5-1.2 1.2-2.1-2.1 1.2-1.1 1 1 .5-.5-1.6-1.5-.5.5-1.2 1.2-2.2-2.1 1.2-1.2 1 1 .5-.5-1.5-1.5-.5.5-1.2 1.2-1.7 1.6 4.2 4.1-2.6 2.5-6.4-6.3 6.8-6.7h4.2l6 5.9v-3.2l-2.8-2.7h2.8v-2.6H-.5v2.6h2.8l-2.8 2.7v3.2zm207.9 4.6l-1.2 1.2-1-1-1 1-1.2-1.2 2.2-2.2 2.2 2.2zm3-10.5l-5.2 5.1-5.2-5.1h10.4zm-21.2 0l-2.8 2.7-2.8-2.7h5.6zm-19.2 10.5l-1.2 1.2-1-1-1 1-1.2-1.2 2.2-2.2 2.2 2.2zm3-10.5L168 29l-5.2-5.1h10.4zm-21.2 0l-2.7 2.7-2.7-2.7h5.4zm-19.2 10.5l-1.2 1.2-1-1-1 1-1.2-1.2 2.2-2.2 2.2 2.2zm3-10.5l-5.2 5.1-5.2-5.1h10.4zm-21.2 0l-2.8 2.7-2.8-2.7h5.6zM95.4 34.4l-1.2 1.2-1-1-1 1-1.2-1.2 2.2-2.2 2.2 2.2zm3-10.5L93.2 29 88 23.9h10.4zm-21.2 0l-2.7 2.7-2.7-2.7h5.4zM58 34.4l-1.2 1.2-1-1-1 1-1.2-1.2 2.2-2.2 2.2 2.2zm2.9-10.5L55.8 29l-5.2-5.1h10.3zm-21.1 0l-2.7 2.7-2.7-2.7h5.4zM20.6 34.4l-1.2 1.2-1-1-1 1-1.2-1.2 2.2-2.2 2.2 2.2zm3-10.5L18.4 29l-5.2-5.1h10.4zM-.3 18h224.4v1.7H-.3z"/></g></g></svg>